<?xml version="1.0" encoding="UTF-8"?>
<svg id="_레이어_2" data-name="레이어 2" xmlns="http://www.w3.org/2000/svg" viewBox="0 0 55.58 43.36">
  <defs>
    <style>
      .cls-1 {
        fill: #434244;
      }

      .cls-1, .cls-2, .cls-3 {
        stroke-width: 0px;
      }

      .cls-4 {
        fill: none;
        stroke: #434244;
        stroke-miterlimit: 10;
        stroke-width: .75px;
      }

      .cls-2 {
        fill: #fff;
      }

      .cls-3 {
        fill: #f8f8f8;
      }
    </style>
  </defs>
  <g id="OBJECTS">
    <g>
      <path class="cls-1" d="M51.58,7.44h-20c-.84,0-1.66-.21-2.39-.61l-5.23-2.85c-.73-.4-1.56-.61-2.39-.61H7.37c-2.21,0-4,1.79-4,4v31.98c0,2.21,1.79,4,4,4h44.2c2.21,0,4-1.79,4-4V11.44c0-2.21-1.79-4-4-4Z"/>
      <path class="cls-3" d="M.38,8.5h52.2v27.85c0,2.21-1.79,4-4,4H4.37c-2.21,0-4-1.79-4-4V8.5H.38Z"/>
      <path class="cls-2" d="M.38,8.5v-4.13C.38,2.17,2.17.38,4.37.38h14.19c.84,0,1.66.21,2.39.61l5.23,2.85c.73.4,1.56.61,2.39.61h20c2.21,0,4,1.79,4,4v.06H.38Z"/>
      <path class="cls-4" d="M.38,8.5h52.2v27.85c0,2.21-1.79,4-4,4H4.37c-2.21,0-4-1.79-4-4V8.5H.38Z"/>
      <path class="cls-4" d="M.38,8.5v-4.13C.38,2.17,2.17.38,4.37.38h14.19c.84,0,1.66.21,2.39.61l5.23,2.85c.73.4,1.56.61,2.39.61h20c2.21,0,4,1.79,4,4v.06"/>
    </g>
  </g>
</svg>