<svg xmlns="http://www.w3.org/2000/svg" xmlns:xlink="http://www.w3.org/1999/xlink" viewBox="0 0 1000 1000" width="1000" height="1000" preserveAspectRatio="xMidYMid meet" style="width: 100%; height: 100%; transform: translate3d(0px, 0px, 0px); content-visibility: visible;"><defs><clipPath id="__lottie_element_1257"><rect width="1000" height="1000" x="0" y="0"></rect></clipPath>

<clipPath id="__lottie_element_1277"><path d="M0,0 L1000,0 L1000,1000 L0,1000z"></path></clipPath>

<clipPath id="__lottie_element_1278"><path fill="#ffffff" clip-rule="nonzero" d=" M978,122.25 C978,122.25 -68,121 -68,121 C-68,121 -67,337 -67,337 C-67,337 979,338.25 979,338.25 C979,338.25 978,122.25 978,122.25" fill-opacity="1"></path></clipPath>

</defs><g clip-path="url(#__lottie_element_1257)"><g transform="matrix(1,0,0,1,0,0)" opacity="1" style="display: block;"><g opacity="1" transform="matrix(1,0,0,1,500,500)"><path fill="rgb(255,255,255)" fill-opacity="1" d=" M-500,500 C-500,500 500,500 500,500 C500,500 500,-500 500,-500 C500,-500 -500,-500 -500,-500 C-500,-500 -500,500 -500,500z"></path></g>

<g opacity="1" transform="matrix(1,0,0,1,500,67.1520004272461)"><path fill="rgb(68,87,96)" fill-opacity="1" d=" M-500,67.1520004272461 C-500,67.1520004272461 500,67.1520004272461 500,67.1520004272461 C500,67.1520004272461 500,-67.1520004272461 500,-67.1520004272461 C500,-67.1520004272461 -500,-67.1520004272461 -500,-67.1520004272461 C-500,-67.1520004272461 -500,67.1520004272461 -500,67.1520004272461z"></path></g>

<g opacity="1" transform="matrix(1,0,0,1,500,25.47800064086914)"><path fill="rgb(43,55,61)" fill-opacity="1" d=" M-500,25.47800064086914 C-500,25.47800064086914 500,25.47800064086914 500,25.47800064086914 C500,25.47800064086914 500,-25.47800064086914 500,-25.47800064086914 C500,-25.47800064086914 -500,-25.47800064086914 -500,-25.47800064086914 C-500,-25.47800064086914 -500,25.47800064086914 -500,25.47800064086914z"></path></g>

<g opacity="1" transform="matrix(1,0,0,1,154.45700073242188,31)"><path fill="rgb(68,87,96)" fill-opacity="1" d=" M145.3699951171875,19.95599937438965 C145.3699951171875,19.95599937438965 -145.3699951171875,19.95599937438965 -145.3699951171875,19.95599937438965 C-145.3699951171875,19.95599937438965 -145.3699951171875,-9.847000122070312 -145.3699951171875,-9.847000122070312 C-145.3699951171875,-15.430000305175781 -140.84300231933594,-19.95599937438965 -135.25999450683594,-19.95599937438965 C-135.25999450683594,-19.95599937438965 135.19500732421875,-19.95599937438965 135.19500732421875,-19.95599937438965 C140.81399536132812,-19.95599937438965 145.3699951171875,-15.401000022888184 145.3699951171875,-9.781999588012695 C145.3699951171875,-9.781999588012695 145.3699951171875,19.95599937438965 145.3699951171875,19.95599937438965z"></path></g>

<g opacity="1" transform="matrix(1,0,0,1,154.45700073242188,31)"><path fill="rgb(254,254,254)" fill-opacity="1" d=" M116.60800170898438,7.043000221252441 C116.60800170898438,7.043000221252441 -116.60900115966797,7.043000221252441 -116.60900115966797,7.043000221252441 C-116.60900115966797,7.043000221252441 -116.60900115966797,-7.043000221252441 -116.60900115966797,-7.043000221252441 C-116.60900115966797,-7.043000221252441 116.60800170898438,-7.043000221252441 116.60800170898438,-7.043000221252441 C116.60800170898438,-7.043000221252441 116.60800170898438,7.043000221252441 116.60800170898438,7.043000221252441z"></path></g>

<g opacity="1" transform="matrix(1,0,0,1,328.29400634765625,31)"><path fill="rgb(254,254,254)" fill-opacity="1" d=" M7.043000221252441,7.043000221252441 C7.043000221252441,7.043000221252441 -7.044000148773193,7.043000221252441 -7.044000148773193,7.043000221252441 C-7.044000148773193,7.043000221252441 -7.044000148773193,-7.043000221252441 -7.044000148773193,-7.043000221252441 C-7.044000148773193,-7.043000221252441 7.043000221252441,-7.043000221252441 7.043000221252441,-7.043000221252441 C7.043000221252441,-7.043000221252441 7.043000221252441,7.043000221252441 7.043000221252441,7.043000221252441z"></path></g>

<g opacity="1" transform="matrix(1,0,0,1,859.864013671875,18.8700008392334)"><path fill="rgb(255,255,255)" fill-opacity="1" d=" M6.309999942779541,0.5870000123977661 C6.309999942779541,0.5870000123977661 -6.309999942779541,0.5870000123977661 -6.309999942779541,0.5870000123977661 C-6.309999942779541,0.5870000123977661 -6.309999942779541,-0.5870000123977661 -6.309999942779541,-0.5870000123977661 C-6.309999942779541,-0.5870000123977661 6.309999942779541,-0.5870000123977661 6.309999942779541,-0.5870000123977661 C6.309999942779541,-0.5870000123977661 6.309999942779541,0.5870000123977661 6.309999942779541,0.5870000123977661z"></path></g>

<g opacity="1" transform="matrix(1,0,0,1,915.208984375,18.893999099731445)"><path stroke-linecap="butt" stroke-linejoin="miter" fill-opacity="0" stroke-miterlimit="10" stroke="rgb(255,255,255)" stroke-opacity="1" stroke-width="1" d=" M6.285999774932861,6.284999847412109 C6.285999774932861,6.284999847412109 -6.284999847412109,6.284999847412109 -6.284999847412109,6.284999847412109 C-6.284999847412109,6.284999847412109 -6.284999847412109,-6.284999847412109 -6.284999847412109,-6.284999847412109 C-6.284999847412109,-6.284999847412109 6.285999774932861,-6.284999847412109 6.285999774932861,-6.284999847412109 C6.285999774932861,-6.284999847412109 6.285999774932861,6.284999847412109 6.285999774932861,6.284999847412109z"></path></g>

<g opacity="1" transform="matrix(1,0,0,1,971.4840087890625,19.13800048828125)"><path stroke-linecap="butt" stroke-linejoin="miter" fill-opacity="0" stroke-miterlimit="10" stroke="rgb(255,255,255)" stroke-opacity="1" stroke-width="1" d=" M-6.015999794006348,-6.040999889373779 C-6.015999794006348,-6.040999889373779 6.015999794006348,6.040999889373779 6.015999794006348,6.040999889373779"></path></g>

<g opacity="1" transform="matrix(1,0,0,1,971.4840087890625,19.13800048828125)"><path stroke-linecap="butt" stroke-linejoin="miter" fill-opacity="0" stroke-miterlimit="10" stroke="rgb(255,255,255)" stroke-opacity="1" stroke-width="1" d=" M-6.040999889373779,6.015999794006348 C-6.040999889373779,6.015999794006348 6.040999889373779,-6.015999794006348 6.040999889373779,-6.015999794006348"></path></g>

<g opacity="1" transform="matrix(1,0,0,1,26.695999145507812,73.8479995727539)"><path fill="rgb(255,255,255)" fill-opacity="1" d=" M7.826000213623047,7.826000213623047 C7.826000213623047,7.826000213623047 -7.826000213623047,7.826000213623047 -7.826000213623047,7.826000213623047 C-7.826000213623047,7.826000213623047 -7.826000213623047,-7.826000213623047 -7.826000213623047,-7.826000213623047 C-7.826000213623047,-7.826000213623047 7.826000213623047,-7.826000213623047 7.826000213623047,-7.826000213623047 C7.826000213623047,-7.826000213623047 7.826000213623047,7.826000213623047 7.826000213623047,7.826000213623047z"></path></g>

<g opacity="1" transform="matrix(1,0,0,1,65.63099670410156,73.8479995727539)"><path fill="rgb(255,255,255)" fill-opacity="1" d=" M7.826000213623047,7.826000213623047 C7.826000213623047,7.826000213623047 -7.826000213623047,7.826000213623047 -7.826000213623047,7.826000213623047 C-7.826000213623047,7.826000213623047 -7.826000213623047,-7.826000213623047 -7.826000213623047,-7.826000213623047 C-7.826000213623047,-7.826000213623047 7.826000213623047,-7.826000213623047 7.826000213623047,-7.826000213623047 C7.826000213623047,-7.826000213623047 7.826000213623047,7.826000213623047 7.826000213623047,7.826000213623047z"></path></g>

<g opacity="1" transform="matrix(1,0,0,1,104.56500244140625,73.8479995727539)"><path fill="rgb(255,255,255)" fill-opacity="1" d=" M7.826000213623047,7.826000213623047 C7.826000213623047,7.826000213623047 -7.826000213623047,7.826000213623047 -7.826000213623047,7.826000213623047 C-7.826000213623047,7.826000213623047 -7.826000213623047,-7.826000213623047 -7.826000213623047,-7.826000213623047 C-7.826000213623047,-7.826000213623047 7.826000213623047,-7.826000213623047 7.826000213623047,-7.826000213623047 C7.826000213623047,-7.826000213623047 7.826000213623047,7.826000213623047 7.826000213623047,7.826000213623047z"></path></g>

<g opacity="1" transform="matrix(1,0,0,1,422.5,73.8479995727539)"><path fill="rgb(56,69,76)" fill-opacity="1" d=" M272.93499755859375,-17.608999252319336 C272.93499755859375,-17.608999252319336 -272.93499755859375,-17.608999252319336 -272.93499755859375,-17.608999252319336 C-282.6600036621094,-17.608999252319336 -290.5429992675781,-9.725000381469727 -290.5429992675781,0 C-290.5429992675781,9.725000381469727 -282.6600036621094,17.608999252319336 -272.93499755859375,17.608999252319336 C-272.93499755859375,17.608999252319336 272.93499755859375,17.608999252319336 272.93499755859375,17.608999252319336 C282.6600036621094,17.608999252319336 290.5429992675781,9.725000381469727 290.5429992675781,0 C290.5429992675781,-9.725000381469727 282.6600036621094,-17.608999252319336 272.93499755859375,-17.608999252319336z"></path></g>


<g opacity="1" transform="matrix(1,0,0,1,216.6739959716797,73.8479995727539)"><path fill="rgb(255,255,255)" fill-opacity="1" d=" M43.5,7.5329999923706055 C43.5,7.5329999923706055 -43.5,7.5329999923706055 -43.5,7.5329999923706055 C-43.5,7.5329999923706055 -43.5,-7.5329999923706055 -43.5,-7.5329999923706055 C-43.5,-7.5329999923706055 43.5,-7.5329999923706055 43.5,-7.5329999923706055 C43.5,-7.5329999923706055 43.5,7.5329999923706055 43.5,7.5329999923706055z"></path></g>

<g opacity="1" transform="matrix(1,0,0,1,778.6519775390625,73.8479995727539)"><path fill="rgb(255,255,255)" fill-opacity="1" d=" M9.26099967956543,9.26099967956543 C9.26099967956543,9.26099967956543 -9.26099967956543,9.26099967956543 -9.26099967956543,9.26099967956543 C-9.26099967956543,9.26099967956543 -9.26099967956543,-9.26099967956543 -9.26099967956543,-9.26099967956543 C-9.26099967956543,-9.26099967956543 9.26099967956543,-9.26099967956543 9.26099967956543,-9.26099967956543 C9.26099967956543,-9.26099967956543 9.26099967956543,9.26099967956543 9.26099967956543,9.26099967956543z"></path></g>

<g opacity="1" transform="matrix(1,0,0,1,818.0430297851562,73.8479995727539)"><path fill="rgb(255,255,255)" fill-opacity="1" d=" M9.26099967956543,9.26099967956543 C9.26099967956543,9.26099967956543 -9.26099967956543,9.26099967956543 -9.26099967956543,9.26099967956543 C-9.26099967956543,9.26099967956543 -9.26099967956543,-9.26099967956543 -9.26099967956543,-9.26099967956543 C-9.26099967956543,-9.26099967956543 9.26099967956543,-9.26099967956543 9.26099967956543,-9.26099967956543 C9.26099967956543,-9.26099967956543 9.26099967956543,9.26099967956543 9.26099967956543,9.26099967956543z"></path></g>

<g opacity="1" transform="matrix(1,0,0,1,857.4349975585938,73.8479995727539)"><path fill="rgb(255,255,255)" fill-opacity="1" d=" M9.26099967956543,9.26099967956543 C9.26099967956543,9.26099967956543 -9.26099967956543,9.26099967956543 -9.26099967956543,9.26099967956543 C-9.26099967956543,9.26099967956543 -9.26099967956543,-9.26099967956543 -9.26099967956543,-9.26099967956543 C-9.26099967956543,-9.26099967956543 9.26099967956543,-9.26099967956543 9.26099967956543,-9.26099967956543 C9.26099967956543,-9.26099967956543 9.26099967956543,9.26099967956543 9.26099967956543,9.26099967956543z"></path></g>

<g opacity="1" transform="matrix(1,0,0,1,896.8259887695312,73.8479995727539)"><path fill="rgb(255,255,255)" fill-opacity="1" d=" M9.26099967956543,9.26099967956543 C9.26099967956543,9.26099967956543 -9.26099967956543,9.26099967956543 -9.26099967956543,9.26099967956543 C-9.26099967956543,9.26099967956543 -9.26099967956543,-9.26099967956543 -9.26099967956543,-9.26099967956543 C-9.26099967956543,-9.26099967956543 9.26099967956543,-9.26099967956543 9.26099967956543,-9.26099967956543 C9.26099967956543,-9.26099967956543 9.26099967956543,9.26099967956543 9.26099967956543,9.26099967956543z"></path></g>
<g opacity="1" transform="matrix(1,0,0,1,936.2169799804688,73.8479995727539)"><path fill="rgb(255,255,255)" fill-opacity="1" d=" M9.26099967956543,9.26099967956543 C9.26099967956543,9.26099967956543 -9.26099967956543,9.26099967956543 -9.26099967956543,9.26099967956543 C-9.26099967956543,9.26099967956543 -9.26099967956543,-9.26099967956543 -9.26099967956543,-9.26099967956543 C-9.26099967956543,-9.26099967956543 9.26099967956543,-9.26099967956543 9.26099967956543,-9.26099967956543 C9.26099967956543,-9.26099967956543 9.26099967956543,9.26099967956543 9.26099967956543,9.26099967956543z"></path></g><g opacity="1" transform="matrix(1,0,0,1,975.6090087890625,73.8479995727539)"><path fill="rgb(255,255,255)" fill-opacity="1" d=" M9.26099967956543,9.26099967956543 C9.26099967956543,9.26099967956543 -9.26099967956543,9.26099967956543 -9.26099967956543,9.26099967956543 C-9.26099967956543,9.26099967956543 -9.26099967956543,-9.26099967956543 -9.26099967956543,-9.26099967956543 C-9.26099967956543,-9.26099967956543 9.26099967956543,-9.26099967956543 9.26099967956543,-9.26099967956543 C9.26099967956543,-9.26099967956543 9.26099967956543,9.26099967956543 9.26099967956543,9.26099967956543z"></path></g><g opacity="1" transform="matrix(1,0,0,1,97.71700286865234,112.19499969482422)">

<path fill="rgb(255,255,255)" fill-opacity="1" d=" M78.8479995727539,8.022000312805176 C78.8479995727539,8.022000312805176 -78.8479995727539,8.022000312805176 -78.8479995727539,8.022000312805176 C-78.8479995727539,8.022000312805176 -78.8479995727539,-8.022000312805176 -78.8479995727539,-8.022000312805176 C-78.8479995727539,-8.022000312805176 78.8479995727539,-8.022000312805176 78.8479995727539,-8.022000312805176 C78.8479995727539,-8.022000312805176 78.8479995727539,8.022000312805176 78.8479995727539,8.022000312805176z"></path></g><g opacity="1" transform="matrix(1,0,0,1,270.93499755859375,112.19499969482422)"><path fill="rgb(255,255,255)" fill-opacity="1" d=" M74.41300201416016,8.022000312805176 C74.41300201416016,8.022000312805176 -74.41300201416016,8.022000312805176 -74.41300201416016,8.022000312805176 C-74.41300201416016,8.022000312805176 -74.41300201416016,-8.022000312805176 -74.41300201416016,-8.022000312805176 C-74.41300201416016,-8.022000312805176 74.41300201416016,-8.022000312805176 74.41300201416016,-8.022000312805176 C74.41300201416016,-8.022000312805176 74.41300201416016,8.022000312805176 74.41300201416016,8.022000312805176z"></path></g>

<g opacity="1" transform="matrix(1,0,0,1,450.4779968261719,112.19499969482422)"><path fill="rgb(255,255,255)" fill-opacity="1" d=" M82.23899841308594,8.022000312805176 C82.23899841308594,8.022000312805176 -82.23899841308594,8.022000312805176 -82.23899841308594,8.022000312805176 C-82.23899841308594,8.022000312805176 -82.23899841308594,-8.022000312805176 -82.23899841308594,-8.022000312805176 C-82.23899841308594,-8.022000312805176 82.23899841308594,-8.022000312805176 82.23899841308594,-8.022000312805176 C82.23899841308594,-8.022000312805176 82.23899841308594,8.022000312805176 82.23899841308594,8.022000312805176z"></path></g>

<g opacity="1" transform="matrix(1,0,0,1,662.5650024414062,112.19499969482422)"><path fill="rgb(255,255,255)" fill-opacity="1" d=" M106.82599639892578,8.022000312805176 C106.82599639892578,8.022000312805176 -106.82599639892578,8.022000312805176 -106.82599639892578,8.022000312805176 C-106.82599639892578,8.022000312805176 -106.82599639892578,-8.022000312805176 -106.82599639892578,-8.022000312805176 C-106.82599639892578,-8.022000312805176 106.82599639892578,-8.022000312805176 106.82599639892578,-8.022000312805176 C106.82599639892578,-8.022000312805176 106.82599639892578,8.022000312805176 106.82599639892578,8.022000312805176z"></path></g><g opacity="1" transform="matrix(1,0,0,1,889.0650024414062,112.19499969482422)"><path fill="rgb(255,255,255)" fill-opacity="1" d=" M95.80500030517578,8.022000312805176 C95.80500030517578,8.022000312805176 -95.80500030517578,8.022000312805176 -95.80500030517578,8.022000312805176 C-95.80500030517578,8.022000312805176 -95.80500030517578,-8.022000312805176 -95.80500030517578,-8.022000312805176 C-95.80500030517578,-8.022000312805176 95.80500030517578,-8.022000312805176 95.80500030517578,-8.022000312805176 C95.80500030517578,-8.022000312805176 95.80500030517578,8.022000312805176 95.80500030517578,8.022000312805176z"></path></g>

<g opacity="1" transform="matrix(1,0,0,1,97.65299987792969,370.8699951171875)"><path fill="rgb(255,146,18)" fill-opacity="1" d=" M23.8700008392334,23.8700008392334 C23.8700008392334,23.8700008392334 -23.8700008392334,23.8700008392334 -23.8700008392334,23.8700008392334 C-23.8700008392334,23.8700008392334 -23.8700008392334,-23.8700008392334 -23.8700008392334,-23.8700008392334 C-23.8700008392334,-23.8700008392334 23.8700008392334,-23.8700008392334 23.8700008392334,-23.8700008392334 C23.8700008392334,-23.8700008392334 23.8700008392334,23.8700008392334 23.8700008392334,23.8700008392334z"></path></g><g opacity="1" transform="matrix(1,0,0,1,97.6520004272461,411.7829895019531)"><path fill="rgb(97,102,109)" fill-opacity="1" d=" M15,7.6519999504089355 C15,7.6519999504089355 -15,7.6519999504089355 -15,7.6519999504089355 C-15,7.6519999504089355 -15,-7.6519999504089355 -15,-7.6519999504089355 C-15,-7.6519999504089355 15,-7.6519999504089355 15,-7.6519999504089355 C15,-7.6519999504089355 15,7.6519999504089355 15,7.6519999504089355z"></path></g>

<g opacity="1" transform="matrix(1,0,0,1,165.73899841308594,411.7829895019531)"><path fill="rgb(97,102,109)" fill-opacity="1" d=" M15,7.6519999504089355 C15,7.6519999504089355 -15,7.6519999504089355 -15,7.6519999504089355 C-15,7.6519999504089355 -15,-7.6519999504089355 -15,-7.6519999504089355 C-15,-7.6519999504089355 15,-7.6519999504089355 15,-7.6519999504089355 C15,-7.6519999504089355 15,7.6519999504089355 15,7.6519999504089355z"></path></g><g opacity="1" transform="matrix(1,0,0,1,233.8260040283203,411.7829895019531)"><path fill="rgb(97,102,109)" fill-opacity="1" d=" M15,7.6519999504089355 C15,7.6519999504089355 -15,7.6519999504089355 -15,7.6519999504089355 C-15,7.6519999504089355 -15,-7.6519999504089355 -15,-7.6519999504089355 C-15,-7.6519999504089355 15,-7.6519999504089355 15,-7.6519999504089355 C15,-7.6519999504089355 15,7.6519999504089355 15,7.6519999504089355z"></path></g>

<g opacity="1" transform="matrix(1,0,0,1,233.82699584960938,370.8699951171875)"><path fill="rgb(89,202,115)" fill-opacity="1" d=" M23.8700008392334,23.8700008392334 C23.8700008392334,23.8700008392334 -23.868999481201172,23.8700008392334 -23.868999481201172,23.8700008392334 C-23.868999481201172,23.8700008392334 -23.868999481201172,-23.8700008392334 -23.868999481201172,-23.8700008392334 C-23.868999481201172,-23.8700008392334 23.8700008392334,-23.8700008392334 23.8700008392334,-23.8700008392334 C23.8700008392334,-23.8700008392334 23.8700008392334,23.8700008392334 23.8700008392334,23.8700008392334z"></path></g><g opacity="1" transform="matrix(1,0,0,1,314.87298583984375,361.6520080566406)"><path fill="rgb(229,229,229)" fill-opacity="1" d=" M25.905000686645508,16.434999465942383 C25.905000686645508,16.434999465942383 -25.9060001373291,16.434999465942383 -25.9060001373291,16.434999465942383 C-29.634000778198242,16.434999465942383 -32.65599822998047,13.413000106811523 -32.65599822998047,9.6850004196167 C-32.65599822998047,9.6850004196167 -32.65599822998047,-9.6850004196167 -32.65599822998047,-9.6850004196167 C-32.65599822998047,-13.413000106811523 -29.634000778198242,-16.434999465942383 -25.9060001373291,-16.434999465942383 C-25.9060001373291,-16.434999465942383 25.905000686645508,-16.434999465942383 25.905000686645508,-16.434999465942383 C29.632999420166016,-16.434999465942383 32.654998779296875,-13.413000106811523 32.654998779296875,-9.6850004196167 C32.654998779296875,-9.6850004196167 32.654998779296875,9.6850004196167 32.654998779296875,9.6850004196167 C32.654998779296875,13.413000106811523 29.632999420166016,16.434999465942383 25.905000686645508,16.434999465942383z"></path></g><g opacity="1" transform="matrix(1,0,0,1,314.87298583984375,408.02099609375)"><path fill="rgb(229,229,229)" fill-opacity="1" d=" M25.905000686645508,16.434999465942383 C25.905000686645508,16.434999465942383 -25.9060001373291,16.434999465942383 -25.9060001373291,16.434999465942383 C-29.634000778198242,16.434999465942383 -32.65599822998047,13.413000106811523 -32.65599822998047,9.6850004196167 C-32.65599822998047,9.6850004196167 -32.65599822998047,-9.6850004196167 -32.65599822998047,-9.6850004196167 C-32.65599822998047,-13.413000106811523 -29.634000778198242,-16.434999465942383 -25.9060001373291,-16.434999465942383 C-25.9060001373291,-16.434999465942383 25.905000686645508,-16.434999465942383 25.905000686645508,-16.434999465942383 C29.632999420166016,-16.434999465942383 32.654998779296875,-13.413000106811523 32.654998779296875,-9.6850004196167 C32.654998779296875,-9.6850004196167 32.654998779296875,9.6850004196167 32.654998779296875,9.6850004196167 C32.654998779296875,13.413000106811523 29.632999420166016,16.434999465942383 25.905000686645508,16.434999465942383z"></path></g>

<g opacity="1" transform="matrix(1,0,0,1,390.89300537109375,361.6520080566406)"><path fill="rgb(229,229,229)" fill-opacity="1" d=" M26.39699935913086,16.434999465942383 C26.39699935913086,16.434999465942383 -26.395999908447266,16.434999465942383 -26.395999908447266,16.434999465942383 C-29.85300064086914,16.434999465942383 -32.654998779296875,13.413000106811523 -32.654998779296875,9.6850004196167 C-32.654998779296875,9.6850004196167 -32.654998779296875,-9.6850004196167 -32.654998779296875,-9.6850004196167 C-32.654998779296875,-13.413000106811523 -29.85300064086914,-16.434999465942383 -26.395999908447266,-16.434999465942383 C-26.395999908447266,-16.434999465942383 26.39699935913086,-16.434999465942383 26.39699935913086,-16.434999465942383 C29.854000091552734,-16.434999465942383 32.654998779296875,-13.413000106811523 32.654998779296875,-9.6850004196167 C32.654998779296875,-9.6850004196167 32.654998779296875,9.6850004196167 32.654998779296875,9.6850004196167 C32.654998779296875,13.413000106811523 29.854000091552734,16.434999465942383 26.39699935913086,16.434999465942383z"></path></g><g opacity="1" transform="matrix(1,0,0,1,390.89300537109375,408.02099609375)"><path fill="rgb(229,229,229)" fill-opacity="1" d=" M26.39699935913086,16.434999465942383 C26.39699935913086,16.434999465942383 -26.395999908447266,16.434999465942383 -26.395999908447266,16.434999465942383 C-29.85300064086914,16.434999465942383 -32.654998779296875,13.413000106811523 -32.654998779296875,9.6850004196167 C-32.654998779296875,9.6850004196167 -32.654998779296875,-9.6850004196167 -32.654998779296875,-9.6850004196167 C-32.654998779296875,-13.413000106811523 -29.85300064086914,-16.434999465942383 -26.395999908447266,-16.434999465942383 C-26.395999908447266,-16.434999465942383 26.39699935913086,-16.434999465942383 26.39699935913086,-16.434999465942383 C29.854000091552734,-16.434999465942383 32.654998779296875,-13.413000106811523 32.654998779296875,-9.6850004196167 C32.654998779296875,-9.6850004196167 32.654998779296875,9.6850004196167 32.654998779296875,9.6850004196167 C32.654998779296875,13.413000106811523 29.854000091552734,16.434999465942383 26.39699935913086,16.434999465942383z"></path></g><g opacity="1" transform="matrix(1,0,0,1,466.9129943847656,361.6520080566406)"><path fill="rgb(229,229,229)" fill-opacity="1" d=" M26.39699935913086,16.434999465942383 C26.39699935913086,16.434999465942383 -26.395999908447266,16.434999465942383 -26.395999908447266,16.434999465942383 C-29.85300064086914,16.434999465942383 -32.654998779296875,13.413000106811523 -32.654998779296875,9.6850004196167 C-32.654998779296875,9.6850004196167 -32.654998779296875,-9.6850004196167 -32.654998779296875,-9.6850004196167 C-32.654998779296875,-13.413000106811523 -29.85300064086914,-16.434999465942383 -26.395999908447266,-16.434999465942383 C-26.395999908447266,-16.434999465942383 26.39699935913086,-16.434999465942383 26.39699935913086,-16.434999465942383 C29.854000091552734,-16.434999465942383 32.654998779296875,-13.413000106811523 32.654998779296875,-9.6850004196167 C32.654998779296875,-9.6850004196167 32.654998779296875,9.6850004196167 32.654998779296875,9.6850004196167 C32.654998779296875,13.413000106811523 29.854000091552734,16.434999465942383 26.39699935913086,16.434999465942383z"></path></g><g opacity="1" transform="matrix(1,0,0,1,466.9129943847656,408.02099609375)"><path fill="rgb(229,229,229)" fill-opacity="1" d=" M26.39699935913086,16.434999465942383 C26.39699935913086,16.434999465942383 -26.395999908447266,16.434999465942383 -26.395999908447266,16.434999465942383 C-29.85300064086914,16.434999465942383 -32.654998779296875,13.413000106811523 -32.654998779296875,9.6850004196167 C-32.654998779296875,9.6850004196167 -32.654998779296875,-9.6850004196167 -32.654998779296875,-9.6850004196167 C-32.654998779296875,-13.413000106811523 -29.85300064086914,-16.434999465942383 -26.395999908447266,-16.434999465942383 C-26.395999908447266,-16.434999465942383 26.39699935913086,-16.434999465942383 26.39699935913086,-16.434999465942383 C29.854000091552734,-16.434999465942383 32.654998779296875,-13.413000106811523 32.654998779296875,-9.6850004196167 C32.654998779296875,-9.6850004196167 32.654998779296875,9.6850004196167 32.654998779296875,9.6850004196167 C32.654998779296875,13.413000106811523 29.854000091552734,16.434999465942383 26.39699935913086,16.434999465942383z"></path></g><g opacity="1" transform="matrix(1,0,0,1,542.9329833984375,361.6520080566406)"><path fill="rgb(229,229,229)" fill-opacity="1" d=" M26.395999908447266,16.434999465942383 C26.395999908447266,16.434999465942383 -26.39699935913086,16.434999465942383 -26.39699935913086,16.434999465942383 C-29.854000091552734,16.434999465942383 -32.65599822998047,13.413000106811523 -32.65599822998047,9.6850004196167 C-32.65599822998047,9.6850004196167 -32.65599822998047,-9.6850004196167 -32.65599822998047,-9.6850004196167 C-32.65599822998047,-13.413000106811523 -29.854000091552734,-16.434999465942383 -26.39699935913086,-16.434999465942383 C-26.39699935913086,-16.434999465942383 26.395999908447266,-16.434999465942383 26.395999908447266,-16.434999465942383 C29.85300064086914,-16.434999465942383 32.654998779296875,-13.413000106811523 32.654998779296875,-9.6850004196167 C32.654998779296875,-9.6850004196167 32.654998779296875,9.6850004196167 32.654998779296875,9.6850004196167 C32.654998779296875,13.413000106811523 29.85300064086914,16.434999465942383 26.395999908447266,16.434999465942383z"></path></g>
<g opacity="1" transform="matrix(1,0,0,1,542.9329833984375,408.02099609375)"><path fill="rgb(229,229,229)" fill-opacity="1" d=" M26.395999908447266,16.434999465942383 C26.395999908447266,16.434999465942383 -26.39699935913086,16.434999465942383 -26.39699935913086,16.434999465942383 C-29.854000091552734,16.434999465942383 -32.65599822998047,13.413000106811523 -32.65599822998047,9.6850004196167 C-32.65599822998047,9.6850004196167 -32.65599822998047,-9.6850004196167 -32.65599822998047,-9.6850004196167 C-32.65599822998047,-13.413000106811523 -29.854000091552734,-16.434999465942383 -26.39699935913086,-16.434999465942383 C-26.39699935913086,-16.434999465942383 26.395999908447266,-16.434999465942383 26.395999908447266,-16.434999465942383 C29.85300064086914,-16.434999465942383 32.654998779296875,-13.413000106811523 32.654998779296875,-9.6850004196167 C32.654998779296875,-9.6850004196167 32.654998779296875,9.6850004196167 32.654998779296875,9.6850004196167 C32.654998779296875,13.413000106811523 29.85300064086914,16.434999465942383 26.395999908447266,16.434999465942383z"></path></g><g opacity="1" transform="matrix(1,0,0,1,618.9530029296875,361.6520080566406)"><path fill="rgb(229,229,229)" fill-opacity="1" d=" M26.39699935913086,16.434999465942383 C26.39699935913086,16.434999465942383 -26.395999908447266,16.434999465942383 -26.395999908447266,16.434999465942383 C-29.85300064086914,16.434999465942383 -32.654998779296875,13.413000106811523 -32.654998779296875,9.6850004196167 C-32.654998779296875,9.6850004196167 -32.654998779296875,-9.6850004196167 -32.654998779296875,-9.6850004196167 C-32.654998779296875,-13.413000106811523 -29.85300064086914,-16.434999465942383 -26.395999908447266,-16.434999465942383 C-26.395999908447266,-16.434999465942383 26.39699935913086,-16.434999465942383 26.39699935913086,-16.434999465942383 C29.854000091552734,-16.434999465942383 32.65599822998047,-13.413000106811523 32.65599822998047,-9.6850004196167 C32.65599822998047,-9.6850004196167 32.65599822998047,9.6850004196167 32.65599822998047,9.6850004196167 C32.65599822998047,13.413000106811523 29.854000091552734,16.434999465942383 26.39699935913086,16.434999465942383z"></path></g><g opacity="1" transform="matrix(1,0,0,1,618.9530029296875,408.02099609375)"><path fill="rgb(229,229,229)" fill-opacity="1" d=" M26.39699935913086,16.434999465942383 C26.39699935913086,16.434999465942383 -26.395999908447266,16.434999465942383 -26.395999908447266,16.434999465942383 C-29.85300064086914,16.434999465942383 -32.654998779296875,13.413000106811523 -32.654998779296875,9.6850004196167 C-32.654998779296875,9.6850004196167 -32.654998779296875,-9.6850004196167 -32.654998779296875,-9.6850004196167 C-32.654998779296875,-13.413000106811523 -29.85300064086914,-16.434999465942383 -26.395999908447266,-16.434999465942383 C-26.395999908447266,-16.434999465942383 26.39699935913086,-16.434999465942383 26.39699935913086,-16.434999465942383 C29.854000091552734,-16.434999465942383 32.65599822998047,-13.413000106811523 32.65599822998047,-9.6850004196167 C32.65599822998047,-9.6850004196167 32.65599822998047,9.6850004196167 32.65599822998047,9.6850004196167 C32.65599822998047,13.413000106811523 29.854000091552734,16.434999465942383 26.39699935913086,16.434999465942383z"></path></g><g opacity="1" transform="matrix(1,0,0,1,729.9349975585938,361.9129943847656)"><path fill="rgb(97,102,109)" fill-opacity="1" d=" M29.542999267578125,8.73900032043457 C29.542999267578125,8.73900032043457 -29.54400062561035,8.73900032043457 -29.54400062561035,8.73900032043457 C-29.54400062561035,8.73900032043457 -29.54400062561035,-8.73900032043457 -29.54400062561035,-8.73900032043457 C-29.54400062561035,-8.73900032043457 29.542999267578125,-8.73900032043457 29.542999267578125,-8.73900032043457 C29.542999267578125,-8.73900032043457 29.542999267578125,8.73900032043457 29.542999267578125,8.73900032043457z"></path></g><g opacity="1" transform="matrix(1,0,0,1,729.9349975585938,407.43499755859375)"><path fill="rgb(97,102,109)" fill-opacity="1" d=" M29.542999267578125,8.73900032043457 C29.542999267578125,8.73900032043457 -29.54400062561035,8.73900032043457 -29.54400062561035,8.73900032043457 C-29.54400062561035,8.73900032043457 -29.54400062561035,-8.73900032043457 -29.54400062561035,-8.73900032043457 C-29.54400062561035,-8.73900032043457 29.542999267578125,-8.73900032043457 29.542999267578125,-8.73900032043457 C29.542999267578125,-8.73900032043457 29.542999267578125,8.73900032043457 29.542999267578125,8.73900032043457z"></path></g><g opacity="1" transform="matrix(1,0,0,1,813.9349975585938,361.9129943847656)"><path fill="rgb(97,102,109)" fill-opacity="1" d=" M29.542999267578125,8.73900032043457 C29.542999267578125,8.73900032043457 -29.54400062561035,8.73900032043457 -29.54400062561035,8.73900032043457 C-29.54400062561035,8.73900032043457 -29.54400062561035,-8.73900032043457 -29.54400062561035,-8.73900032043457 C-29.54400062561035,-8.73900032043457 29.542999267578125,-8.73900032043457 29.542999267578125,-8.73900032043457 C29.542999267578125,-8.73900032043457 29.542999267578125,8.73900032043457 29.542999267578125,8.73900032043457z"></path></g><g opacity="1" transform="matrix(1,0,0,1,813.9349975585938,407.43499755859375)"><path fill="rgb(97,102,109)" fill-opacity="1" d=" M29.542999267578125,8.73900032043457 C29.542999267578125,8.73900032043457 -29.54400062561035,8.73900032043457 -29.54400062561035,8.73900032043457 C-29.54400062561035,8.73900032043457 -29.54400062561035,-8.73900032043457 -29.54400062561035,-8.73900032043457 C-29.54400062561035,-8.73900032043457 29.542999267578125,-8.73900032043457 29.542999267578125,-8.73900032043457 C29.542999267578125,-8.73900032043457 29.542999267578125,8.73900032043457 29.542999267578125,8.73900032043457z"></path></g><g opacity="1" transform="matrix(1,0,0,1,913.1950073242188,407.43499755859375)"><path fill="rgb(97,102,109)" fill-opacity="1" d=" M44.80500030517578,8.73900032043457 C44.80500030517578,8.73900032043457 -44.80500030517578,8.73900032043457 -44.80500030517578,8.73900032043457 C-44.80500030517578,8.73900032043457 -44.80500030517578,-8.73900032043457 -44.80500030517578,-8.73900032043457 C-44.80500030517578,-8.73900032043457 44.80500030517578,-8.73900032043457 44.80500030517578,-8.73900032043457 C44.80500030517578,-8.73900032043457 44.80500030517578,8.73900032043457 44.80500030517578,8.73900032043457z"></path></g><g opacity="1" transform="matrix(1,0,0,1,678.5430297851562,384.8370056152344)"><path fill="rgb(229,229,229)" fill-opacity="1" d=" M0.4569999873638153,40.435001373291016 C0.4569999873638153,40.435001373291016 -0.4560000002384186,40.435001373291016 -0.4560000002384186,40.435001373291016 C-0.4560000002384186,40.435001373291016 -0.4560000002384186,-40.435001373291016 -0.4560000002384186,-40.435001373291016 C-0.4560000002384186,-40.435001373291016 0.4569999873638153,-40.435001373291016 0.4569999873638153,-40.435001373291016 C0.4569999873638153,-40.435001373291016 0.4569999873638153,40.435001373291016 0.4569999873638153,40.435001373291016z"></path></g><g opacity="1" transform="matrix(1,0,0,1,572.0360107421875,527.0440063476562)"><path fill="rgb(229,229,229)" fill-opacity="1" d=" M110.20999908447266,82.82599639892578 C110.20999908447266,82.82599639892578 -110.20999908447266,82.82599639892578 -110.20999908447266,82.82599639892578 C-116.47699737548828,82.82599639892578 -121.55699920654297,77.74500274658203 -121.55699920654297,71.47799682617188 C-121.55699920654297,71.47799682617188 -121.55699920654297,-71.47799682617188 -121.55699920654297,-71.47799682617188 C-121.55699920654297,-77.74600219726562 -116.47699737548828,-82.82599639892578 -110.20999908447266,-82.82599639892578 C-110.20999908447266,-82.82599639892578 110.20999908447266,-82.82599639892578 110.20999908447266,-82.82599639892578 C116.47699737548828,-82.82599639892578 121.55699920654297,-77.74600219726562 121.55699920654297,-71.47799682617188 C121.55699920654297,-71.47799682617188 121.55699920654297,71.47799682617188 121.55699920654297,71.47799682617188 C121.55699920654297,77.74500274658203 116.47699737548828,82.82599639892578 110.20999908447266,82.82599639892578z"></path></g><g opacity="1" transform="matrix(1,0,0,1,559.27197265625,633.5430297851562)"><path fill="rgb(97,102,109)" fill-opacity="1" d=" M108.79399871826172,9.718000411987305 C108.79399871826172,9.718000411987305 -108.79399871826172,9.718000411987305 -108.79399871826172,9.718000411987305 C-108.79399871826172,9.718000411987305 -108.79399871826172,-9.717000007629395 -108.79399871826172,-9.717000007629395 C-108.79399871826172,-9.717000007629395 108.79399871826172,-9.717000007629395 108.79399871826172,-9.717000007629395 C108.79399871826172,-9.717000007629395 108.79399871826172,9.718000411987305 108.79399871826172,9.718000411987305z"></path></g><g opacity="1" transform="matrix(1,0,0,1,498.46600341796875,659.72802734375)"><path fill="rgb(97,102,109)" fill-opacity="1" d=" M47.98699951171875,11.25 C47.98699951171875,11.25 -47.987998962402344,11.25 -47.987998962402344,11.25 C-47.987998962402344,11.25 -47.987998962402344,-11.25 -47.987998962402344,-11.25 C-47.987998962402344,-11.25 47.98699951171875,-11.25 47.98699951171875,-11.25 C47.98699951171875,-11.25 47.98699951171875,11.25 47.98699951171875,11.25z"></path></g><g opacity="1" transform="matrix(1,0,0,1,544.3179931640625,687.7069702148438)"><path fill="rgb(179,184,185)" fill-opacity="1" d=" M93.83899688720703,11.25 C93.83899688720703,11.25 -93.83899688720703,11.25 -93.83899688720703,11.25 C-93.83899688720703,11.25 -93.83899688720703,-11.25 -93.83899688720703,-11.25 C-93.83899688720703,-11.25 93.83899688720703,-11.25 93.83899688720703,-11.25 C93.83899688720703,-11.25 93.83899688720703,11.25 93.83899688720703,11.25z"></path></g>
<g opacity="1" transform="matrix(1,0,0,1,822.364013671875,633.5430297851562)"><path fill="rgb(97,102,109)" fill-opacity="1" d=" M108.79399871826172,9.718000411987305 C108.79399871826172,9.718000411987305 -108.79399871826172,9.718000411987305 -108.79399871826172,9.718000411987305 C-108.79399871826172,9.718000411987305 -108.79399871826172,-9.717000007629395 -108.79399871826172,-9.717000007629395 C-108.79399871826172,-9.717000007629395 108.79399871826172,-9.717000007629395 108.79399871826172,-9.717000007629395 C108.79399871826172,-9.717000007629395 108.79399871826172,9.718000411987305 108.79399871826172,9.718000411987305z"></path></g><g opacity="1" transform="matrix(1,0,0,1,761.5570068359375,659.72802734375)"><path fill="rgb(97,102,109)" fill-opacity="1" d=" M47.98699951171875,11.25 C47.98699951171875,11.25 -47.98699951171875,11.25 -47.98699951171875,11.25 C-47.98699951171875,11.25 -47.98699951171875,-11.25 -47.98699951171875,-11.25 C-47.98699951171875,-11.25 47.98699951171875,-11.25 47.98699951171875,-11.25 C47.98699951171875,-11.25 47.98699951171875,11.25 47.98699951171875,11.25z"></path></g><g opacity="1" transform="matrix(1,0,0,1,807.4089965820312,687.7069702148438)"><path fill="rgb(179,184,185)" fill-opacity="1" d=" M93.83899688720703,11.25 C93.83899688720703,11.25 -93.83899688720703,11.25 -93.83899688720703,11.25 C-93.83899688720703,11.25 -93.83899688720703,-11.25 -93.83899688720703,-11.25 C-93.83899688720703,-11.25 93.83899688720703,-11.25 93.83899688720703,-11.25 C93.83899688720703,-11.25 93.83899688720703,11.25 93.83899688720703,11.25z"></path></g><g opacity="1" transform="matrix(1,0,0,1,559.27197265625,910.5869750976562)"><path fill="rgb(97,102,109)" fill-opacity="1" d=" M108.79399871826172,9.717000007629395 C108.79399871826172,9.717000007629395 -108.79399871826172,9.717000007629395 -108.79399871826172,9.717000007629395 C-108.79399871826172,9.717000007629395 -108.79399871826172,-9.718000411987305 -108.79399871826172,-9.718000411987305 C-108.79399871826172,-9.718000411987305 108.79399871826172,-9.718000411987305 108.79399871826172,-9.718000411987305 C108.79399871826172,-9.718000411987305 108.79399871826172,9.717000007629395 108.79399871826172,9.717000007629395z"></path></g><g opacity="1" transform="matrix(1,0,0,1,498.46600341796875,936.77197265625)"><path fill="rgb(97,102,109)" fill-opacity="1" d=" M47.98699951171875,11.25 C47.98699951171875,11.25 -47.987998962402344,11.25 -47.987998962402344,11.25 C-47.987998962402344,11.25 -47.987998962402344,-11.25 -47.987998962402344,-11.25 C-47.987998962402344,-11.25 47.98699951171875,-11.25 47.98699951171875,-11.25 C47.98699951171875,-11.25 47.98699951171875,11.25 47.98699951171875,11.25z"></path></g><g opacity="1" transform="matrix(1,0,0,1,544.3179931640625,964.75)"><path fill="rgb(179,184,185)" fill-opacity="1" d=" M93.83899688720703,11.25 C93.83899688720703,11.25 -93.83899688720703,11.25 -93.83899688720703,11.25 C-93.83899688720703,11.25 -93.83899688720703,-11.25 -93.83899688720703,-11.25 C-93.83899688720703,-11.25 93.83899688720703,-11.25 93.83899688720703,-11.25 C93.83899688720703,-11.25 93.83899688720703,11.25 93.83899688720703,11.25z"></path></g><g opacity="1" transform="matrix(1,0,0,1,836.4429931640625,804.0869750976562)"><path fill="rgb(229,229,229)" fill-opacity="1" d=" M110.20999908447266,82.82599639892578 C110.20999908447266,82.82599639892578 -110.21099853515625,82.82599639892578 -110.21099853515625,82.82599639892578 C-116.47799682617188,82.82599639892578 -121.55699920654297,77.74500274658203 -121.55699920654297,71.47799682617188 C-121.55699920654297,71.47799682617188 -121.55699920654297,-71.47799682617188 -121.55699920654297,-71.47799682617188 C-121.55699920654297,-77.74600219726562 -116.47799682617188,-82.82599639892578 -110.21099853515625,-82.82599639892578 C-110.21099853515625,-82.82599639892578 110.20999908447266,-82.82599639892578 110.20999908447266,-82.82599639892578 C116.47699737548828,-82.82599639892578 121.55699920654297,-77.74600219726562 121.55699920654297,-71.47799682617188 C121.55699920654297,-71.47799682617188 121.55699920654297,71.47799682617188 121.55699920654297,71.47799682617188 C121.55699920654297,77.74500274658203 116.47699737548828,82.82599639892578 110.20999908447266,82.82599639892578z"></path></g><g opacity="1" transform="matrix(1,0,0,1,823.677978515625,910.5869750976562)"><path fill="rgb(97,102,109)" fill-opacity="1" d=" M108.79399871826172,9.717000007629395 C108.79399871826172,9.717000007629395 -108.79399871826172,9.717000007629395 -108.79399871826172,9.717000007629395 C-108.79399871826172,9.717000007629395 -108.79399871826172,-9.718000411987305 -108.79399871826172,-9.718000411987305 C-108.79399871826172,-9.718000411987305 108.79399871826172,-9.718000411987305 108.79399871826172,-9.718000411987305 C108.79399871826172,-9.718000411987305 108.79399871826172,9.717000007629395 108.79399871826172,9.717000007629395z"></path></g><g opacity="1" transform="matrix(1,0,0,1,762.8720092773438,936.77197265625)"><path fill="rgb(97,102,109)" fill-opacity="1" d=" M47.98699951171875,11.25 C47.98699951171875,11.25 -47.98699951171875,11.25 -47.98699951171875,11.25 C-47.98699951171875,11.25 -47.98699951171875,-11.25 -47.98699951171875,-11.25 C-47.98699951171875,-11.25 47.98699951171875,-11.25 47.98699951171875,-11.25 C47.98699951171875,-11.25 47.98699951171875,11.25 47.98699951171875,11.25z"></path></g><g opacity="1" transform="matrix(1,0,0,1,989.4349975585938,567.1519775390625)"><path fill="rgb(241,241,241)" fill-opacity="1" d=" M10.5649995803833,432.8479919433594 C10.5649995803833,432.8479919433594 -10.5649995803833,432.8479919433594 -10.5649995803833,432.8479919433594 C-10.5649995803833,432.8479919433594 -10.5649995803833,-432.8479919433594 -10.5649995803833,-432.8479919433594 C-10.5649995803833,-432.8479919433594 10.5649995803833,-432.8479919433594 10.5649995803833,-432.8479919433594 C10.5649995803833,-432.8479919433594 10.5649995803833,432.8479919433594 10.5649995803833,432.8479919433594z"></path></g><g opacity="1" transform="matrix(1,0,0,1,989.8259887695312,267.5429992675781)"><path fill="rgb(193,193,193)" fill-opacity="1" d=" M7.826000213623047,110.54299926757812 C7.826000213623047,110.54299926757812 -7.826000213623047,110.54299926757812 -7.826000213623047,110.54299926757812 C-7.826000213623047,110.54299926757812 -7.826000213623047,-110.54299926757812 -7.826000213623047,-110.54299926757812 C-7.826000213623047,-110.54299926757812 7.826000213623047,-110.54299926757812 7.826000213623047,-110.54299926757812 C7.826000213623047,-110.54299926757812 7.826000213623047,110.54299926757812 7.826000213623047,110.54299926757812z"></path></g></g><g transform="matrix(1,0,0,1,0,0)" opacity="1" style="display: block;"><g opacity="1" transform="matrix(1,0,0,1,913.1950073242188,361.9129943847656)"><path fill="rgb(97,102,109)" fill-opacity="1" d=" M44.80500030517578,8.73900032043457 C44.80500030517578,8.73900032043457 -44.80500030517578,8.73900032043457 -44.80500030517578,8.73900032043457 C-44.80500030517578,8.73900032043457 -44.80500030517578,-8.73900032043457 -44.80500030517578,-8.73900032043457 C-44.80500030517578,-8.73900032043457 44.80500030517578,-8.73900032043457 44.80500030517578,-8.73900032043457 C44.80500030517578,-8.73900032043457 44.80500030517578,8.73900032043457 44.80500030517578,8.73900032043457z"></path></g></g><g transform="matrix(1,0,0,1,0,0)" opacity="1" style="display: block;"><g opacity="1" transform="matrix(1,0,0,1,808.7239990234375,964.75)"><path fill="rgb(179,184,185)" fill-opacity="1" d=" M93.83899688720703,11.25 C93.83899688720703,11.25 -93.83899688720703,11.25 -93.83899688720703,11.25 C-93.83899688720703,11.25 -93.83899688720703,-11.25 -93.83899688720703,-11.25 C-93.83899688720703,-11.25 93.83899688720703,-11.25 93.83899688720703,-11.25 C93.83899688720703,-11.25 93.83899688720703,11.25 93.83899688720703,11.25z"></path></g></g><g transform="matrix(1,0,0,1,0,0)" opacity="1" style="display: block;"><g opacity="1" transform="matrix(1,0,0,1,165.74000549316406,370.8699951171875)"><path fill="rgb(240,119,117)" fill-opacity="1" d=" M23.868999481201172,23.8700008392334 C23.868999481201172,23.8700008392334 -23.8700008392334,23.8700008392334 -23.8700008392334,23.8700008392334 C-23.8700008392334,23.8700008392334 -23.8700008392334,-23.8700008392334 -23.8700008392334,-23.8700008392334 C-23.8700008392334,-23.8700008392334 23.868999481201172,-23.8700008392334 23.868999481201172,-23.8700008392334 C23.868999481201172,-23.8700008392334 23.868999481201172,23.8700008392334 23.868999481201172,23.8700008392334z"></path></g></g><g transform="matrix(1,0,0,1,0,0)" opacity="1" style="display: block;"><g opacity="1" transform="matrix(1,0,0,1,489.43499755859375,229.39100646972656)"><path fill="rgb(51,185,221)" fill-opacity="1" d=" M-489.43499755859375,95.08699798583984 C-489.43499755859375,95.08699798583984 489.43499755859375,95.08699798583984 489.43499755859375,95.08699798583984 C489.43499755859375,95.08699798583984 489.43499755859375,-95.08699798583984 489.43499755859375,-95.08699798583984 C489.43499755859375,-95.08699798583984 -489.43499755859375,-95.08699798583984 -489.43499755859375,-95.08699798583984 C-489.43499755859375,-95.08699798583984 -489.43499755859375,95.08699798583984 -489.43499755859375,95.08699798583984z"></path></g></g><g clip-path="url(#__lottie_element_1277)" transform="matrix(1,0,0,1,0,0)" opacity="1" style="display: block;"><g clip-path="url(#__lottie_element_1278)"><g transform="matrix(1,0,0,1,-418.4715270996094,0)" opacity="1" style="display: block;"><g opacity="1" transform="matrix(1,0,0,1,489.43499755859375,229.39100646972656)"><path fill="rgb(223,139,27)" fill-opacity="1" d=" M-489.43499755859375,95.08699798583984 C-489.43499755859375,95.08699798583984 489.43499755859375,95.08699798583984 489.43499755859375,95.08699798583984 C489.43499755859375,95.08699798583984 489.43499755859375,-95.08699798583984 489.43499755859375,-95.08699798583984 C489.43499755859375,-95.08699798583984 -489.43499755859375,-95.08699798583984 -489.43499755859375,-95.08699798583984 C-489.43499755859375,-95.08699798583984 -489.43499755859375,95.08699798583984 -489.43499755859375,95.08699798583984z"></path></g></g></g></g><g transform="matrix(1,0,0,1,0,0)" opacity="1" style="display: block;"><g opacity="1" transform="matrix(1,0,0,1,572.0360107421875,804.0869750976562)"><path fill="rgb(229,229,229)" fill-opacity="1" d=" M110.20999908447266,82.82599639892578 C110.20999908447266,82.82599639892578 -110.20999908447266,82.82599639892578 -110.20999908447266,82.82599639892578 C-116.47699737548828,82.82599639892578 -121.55699920654297,77.74500274658203 -121.55699920654297,71.47799682617188 C-121.55699920654297,71.47799682617188 -121.55699920654297,-71.47799682617188 -121.55699920654297,-71.47799682617188 C-121.55699920654297,-77.74600219726562 -116.47699737548828,-82.82599639892578 -110.20999908447266,-82.82599639892578 C-110.20999908447266,-82.82599639892578 110.20999908447266,-82.82599639892578 110.20999908447266,-82.82599639892578 C116.47699737548828,-82.82599639892578 121.55699920654297,-77.74600219726562 121.55699920654297,-71.47799682617188 C121.55699920654297,-71.47799682617188 121.55699920654297,71.47799682617188 121.55699920654297,71.47799682617188 C121.55699920654297,77.74500274658203 116.47699737548828,82.82599639892578 110.20999908447266,82.82599639892578z"></path></g>

</g><g transform="matrix(1,0,0,1,0,-5.306396484375)" opacity="1" style="display: block;"><g opacity="1" transform="matrix(1,0,0,1,835.1279907226562,527.0440063476562)"><path fill="rgb(237,237,0)" fill-opacity="1" d=" M110.20999908447266,82.82599639892578 C110.20999908447266,82.82599639892578 -110.21099853515625,82.82599639892578 -110.21099853515625,82.82599639892578 C-116.47799682617188,82.82599639892578 -121.55699920654297,77.74500274658203 -121.55699920654297,71.47799682617188 C-121.55699920654297,71.47799682617188 -121.55699920654297,-71.47799682617188 -121.55699920654297,-71.47799682617188 C-121.55699920654297,-77.74600219726562 -116.47799682617188,-82.82599639892578 -110.21099853515625,-82.82599639892578 C-110.21099853515625,-82.82599639892578 110.20999908447266,-82.82599639892578 110.20999908447266,-82.82599639892578 C116.47699737548828,-82.82599639892578 121.55699920654297,-77.74600219726562 121.55699920654297,-71.47799682617188 C121.55699920654297,-71.47799682617188 121.55699920654297,71.47799682617188 121.55699920654297,71.47799682617188 C121.55699920654297,77.74500274658203 116.47699737548828,82.82599639892578 110.20999908447266,82.82599639892578z"></path></g></g><g transform="matrix(1,0,0,1,0,0)" opacity="1" style="display: block;"><path fill="rgb(255,0,0)" fill-opacity="1" d=" M410.7,961 C410.7,969.28 403.97,976 395.7,976 C395.7,976 88.78,976 88.78,976 C80.51,976 73.78,969.28 73.78,961 C73.78,961 73.78,459.22 73.78,459.22 C73.78,450.94 80.51,444.22 88.78,444.22 C88.78,444.22 395.7,444.22 395.7,444.22 C403.97,444.22 410.7,450.94 410.7,459.22 C410.7,459.22 410.7,961 410.7,961z"></path><g opacity="1" transform="matrix(1,0,0,1,242.24000549316406,710.1090087890625)"><path fill="rgb(229,229,229)" fill-opacity="1" d=" M168.45599365234375,250.8909912109375 C168.45599365234375,259.16949462890625 161.7344970703125,265.8909912109375 153.45599365234375,265.8909912109375 C153.45599365234375,265.8909912109375 -153.45599365234375,265.8909912109375 -153.45599365234375,265.8909912109375 C-161.7344970703125,265.8909912109375 -168.45599365234375,259.16949462890625 -168.45599365234375,250.8909912109375 C-168.45599365234375,250.8909912109375 -168.45599365234375,-250.89199829101562 -168.45599365234375,-250.89199829101562 C-168.45599365234375,-259.1705017089844 -161.7344970703125,-265.8919982910156 -153.45599365234375,-265.8919982910156 C-153.45599365234375,-265.8919982910156 153.45599365234375,-265.8919982910156 153.45599365234375,-265.8919982910156 C161.7344970703125,-265.8919982910156 168.45599365234375,-259.1705017089844 168.45599365234375,-250.89199829101562 C168.45599365234375,-250.89199829101562 168.45599365234375,250.8909912109375 168.45599365234375,250.8909912109375z"></path></g></g><g transform="matrix(0.8191520571708679,-0.5735764503479004,0.5735764503479004,0.8191520571708679,102.58453369140625,332.2545166015625)" opacity="1" style="display: block;"><g opacity="1" transform="matrix(1,0,0,1,699.9400024414062,789.5650024414062)"><path fill="rgb(23,247,0)" fill-opacity="1" d=" M-50.76300048828125,-40.17399978637695 C-50.76300048828125,-40.17399978637695 -39.90999984741211,-15.652000427246094 -33.54600143432617,9.913000106811523 C-27.18199920654297,35.47800064086914 -14.241000175476074,58.435001373291016 -14.241000175476074,58.435001373291016 C-14.241000175476074,58.435001373291016 50.762001037597656,51.737998962402344 50.762001037597656,51.737998962402344 C50.762001037597656,51.737998962402344 22.408000946044922,6.065999984741211 13.41100025177002,-12 C4.414000034332275,-30.06599998474121 -6.936999797821045,-58.435001373291016 -6.936999797821045,-58.435001373291016 C-6.936999797821045,-58.435001373291016 -50.76300048828125,-40.17399978637695 -50.76300048828125,-40.17399978637695z"></path><path stroke-linecap="round" stroke-linejoin="round" fill-opacity="0" stroke="rgb(0,0,0)" stroke-opacity="1" stroke-width="2" d=" M-50.76300048828125,-40.17399978637695 C-50.76300048828125,-40.17399978637695 -39.90999984741211,-15.652000427246094 -33.54600143432617,9.913000106811523 C-27.18199920654297,35.47800064086914 -14.241000175476074,58.435001373291016 -14.241000175476074,58.435001373291016 C-14.241000175476074,58.435001373291016 50.762001037597656,51.737998962402344 50.762001037597656,51.737998962402344 C50.762001037597656,51.737998962402344 22.408000946044922,6.065999984741211 13.41100025177002,-12 C4.414000034332275,-30.06599998474121 -6.936999797821045,-58.435001373291016 -6.936999797821045,-58.435001373291016 C-6.936999797821045,-58.435001373291016 -50.76300048828125,-40.17399978637695 -50.76300048828125,-40.17399978637695z"></path></g>

<g opacity="1" transform="matrix(1,0,0,1,631.7839965820312,675.166015625)"><path fill="rgb(255,255,255)" fill-opacity="1" d=" M67.50299835205078,22.222999572753906 C65.86599731445312,30.163999557495117 65.53600311279297,36.62699890136719 60.66699981689453,43.39699935913086 C68.18800354003906,49.99599838256836 78.4260025024414,65.97200012207031 25.197999954223633,80.01899719238281 C3.624000072479248,84.33499908447266 1.86899995803833,73.25599670410156 2.4100000858306885,67.23500061035156 C-12.654999732971191,64.47100067138672 -24.367000579833984,56.19200134277344 -31.85099983215332,56.04499816894531 C-44.07899856567383,55.79899978637695 -48.77399826049805,64.93399810791016 -63.60100173950195,60.61399841308594 C-78.427001953125,56.29399871826172 -77.50700378417969,32.814998626708984 -51.7239990234375,24.222000122070312 C-37.685001373291016,20.0049991607666 -25.993000030517578,28.55900001525879 -24.323999404907227,26.770999908447266 C-22.658000946044922,24.97599983215332 -32.42300033569336,-5.53000020980835 -50.4630012512207,-29.985000610351562 C-68.50199890136719,-54.439998626708984 -56.34000015258789,-76.61000061035156 -45.04100036621094,-80.37899780273438 C-33.18000030517578,-84.33499908447266 -18.54400062561035,-42.09299850463867 -16.256000518798828,-40.18000030517578 C-13.97599983215332,-38.26499938964844 -12.663999557495117,-44.5989990234375 -4.9770002365112305,-47.01300048828125 C2.7119998931884766,-49.41999816894531 6.607999801635742,-44.981998443603516 9.454000473022461,-45.417999267578125 C12.295000076293945,-45.845001220703125 13.932999610900879,-48.27000045776367 20.739999771118164,-46.8390007019043 C27.549999237060547,-45.4010009765625 29.43899917602539,-42.43299865722656 31.385000228881836,-41.922000885009766 C33.33100128173828,-41.4109992980957 34.8650016784668,-44.10100173950195 43.946998596191406,-40.95899963378906 C54.52799987792969,-37.41699981689453 72.01200103759766,-2.302999973297119 67.50299835205078,22.222999572753906z"></path><path stroke-linecap="butt" stroke-linejoin="miter" fill-opacity="0" stroke-miterlimit="10" stroke="rgb(0,0,0)" stroke-opacity="1" stroke-width="2" d=" M67.50299835205078,22.222999572753906 C65.86599731445312,30.163999557495117 65.53600311279297,36.62699890136719 60.66699981689453,43.39699935913086 C68.18800354003906,49.99599838256836 78.4260025024414,65.97200012207031 25.197999954223633,80.01899719238281 C3.624000072479248,84.33499908447266 1.86899995803833,73.25599670410156 2.4100000858306885,67.23500061035156 C-12.654999732971191,64.47100067138672 -24.367000579833984,56.19200134277344 -31.85099983215332,56.04499816894531 C-44.07899856567383,55.79899978637695 -48.77399826049805,64.93399810791016 -63.60100173950195,60.61399841308594 C-78.427001953125,56.29399871826172 -77.50700378417969,32.814998626708984 -51.7239990234375,24.222000122070312 C-37.685001373291016,20.0049991607666 -25.993000030517578,28.55900001525879 -24.323999404907227,26.770999908447266 C-22.658000946044922,24.97599983215332 -32.42300033569336,-5.53000020980835 -50.4630012512207,-29.985000610351562 C-68.50199890136719,-54.439998626708984 -56.34000015258789,-76.61000061035156 -45.04100036621094,-80.37899780273438 C-33.18000030517578,-84.33499908447266 -18.54400062561035,-42.09299850463867 -16.256000518798828,-40.18000030517578 C-13.97599983215332,-38.26499938964844 -12.663999557495117,-44.5989990234375 -4.9770002365112305,-47.01300048828125 C2.7119998931884766,-49.41999816894531 6.607999801635742,-44.981998443603516 9.454000473022461,-45.417999267578125 C12.295000076293945,-45.845001220703125 13.932999610900879,-48.27000045776367 20.739999771118164,-46.8390007019043 C27.549999237060547,-45.4010009765625 29.43899917602539,-42.43299865722656 31.385000228881836,-41.922000885009766 C33.33100128173828,-41.4109992980957 34.8650016784668,-44.10100173950195 43.946998596191406,-40.95899963378906 C54.52799987792969,-37.41699981689453 72.01200103759766,-2.302999973297119 67.50299835205078,22.222999572753906z"></path></g>

<g opacity="1" transform="matrix(1,0,0,1,628.5770263671875,672.1170043945312)"><path stroke-linecap="butt" stroke-linejoin="miter" fill-opacity="0" stroke-miterlimit="10" stroke="rgb(0,0,0)" stroke-opacity="1" stroke-width="2" d=" M-21.114999771118164,29.81800079345703 C-22.781999588012695,31.608999252319336 -34.48099899291992,23.051000595092773 -48.51499938964844,27.27199935913086 C-74.30000305175781,35.867000579833984 -75.21700286865234,59.340999603271484 -60.393001556396484,63.6609992980957 C-45.569000244140625,67.98100280761719 -40.87200164794922,58.849998474121094 -28.64299964904785,59.095001220703125 C-16.413999557495117,59.3390007019043 7.122000217437744,81.29000091552734 38.12200164794922,65.44100189208984 C69.12300109863281,49.59199905395508 67.68499755859375,39.94300079345703 70.71099853515625,25.270999908447266 C75.21600341796875,0.7429999709129333 57.737998962402344,-34.369998931884766 47.15599822998047,-37.90599822998047 C38.07600021362305,-41.05400085449219 36.53900146484375,-38.3650016784668 34.59400177001953,-38.874000549316406 C32.64799880981445,-39.382999420166016 30.7549991607666,-42.354000091552734 23.945999145507812,-43.78900146484375 C17.13599967956543,-45.222999572753906 15.5,-42.79899978637695 12.659000396728516,-42.36600112915039 C9.817999839782715,-41.93299865722656 5.918000221252441,-46.37099838256836 -1.7710000276565552,-43.96099853515625 C-9.458999633789062,-41.54999923706055 -10.763999938964844,-35.21500015258789 -13.048999786376953,-37.130001068115234 C-15.335000038146973,-39.04399871826172 -29.974000930786133,-81.29000091552734 -41.83100128173828,-77.33399963378906 C-53.13199996948242,-73.56400299072266 -65.29299926757812,-51.38800048828125 -47.25299835205078,-26.934999465942383 C-29.21299934387207,-2.4809999465942383 -19.447999954223633,28.027000427246094 -21.114999771118164,29.81800079345703z"></path></g><g opacity="1" transform="matrix(1,0,0,1,646.6489868164062,638.9979858398438)"><path stroke-linecap="round" stroke-linejoin="round" fill-opacity="0" stroke="rgb(0,0,0)" stroke-opacity="1" stroke-width="2" d=" M-9.560999870300293,-10.336000442504883 C-9.560999870300293,-10.336000442504883 -3.5989999771118164,-8.435999870300293 1.7139999866485596,-2.0759999752044678 C7.0269999504089355,4.283999919891357 9.562000274658203,10.336000442504883 9.562000274658203,10.336000442504883"></path></g><g opacity="1" transform="matrix(1,0,0,1,662.22998046875,636.6690063476562)"><path stroke-linecap="round" stroke-linejoin="round" fill-opacity="0" stroke="rgb(0,0,0)" stroke-opacity="1" stroke-width="2" d=" M-6.671000003814697,-7.505000114440918 C-6.671000003814697,-7.505000114440918 -2.6089999675750732,-6.423999786376953 0.47999998927116394,-3.0280001163482666 C3.569000005722046,0.36800000071525574 6.671000003814697,7.505000114440918 6.671000003814697,7.505000114440918"></path></g><g opacity="1" transform="matrix(1,0,0,1,624.4990234375,646.489990234375)"><path stroke-linecap="round" stroke-linejoin="round" fill-opacity="0" stroke="rgb(0,0,0)" stroke-opacity="1" stroke-width="2" d=" M-9.819000244140625,-12.822999954223633 C-9.819000244140625,-12.822999954223633 -7.5289998054504395,-6.335999965667725 -1.8450000286102295,1.753000020980835 C3.8380000591278076,9.843000411987305 9.819000244140625,12.822999954223633 9.819000244140625,12.822999954223633"></path></g></g><g transform="matrix(-0.5591928958892822,0.8290375471115112,0.8290375471115112,0.5591928958892822,340.70611572265625,218.2431640625)" opacity="1" style="display: block;"><g opacity="1" transform="matrix(1,0,0,1,699.9400024414062,789.5650024414062)"><path fill="rgb(9,147,201)" fill-opacity="1" d=" M-50.76300048828125,-40.17399978637695 C-50.76300048828125,-40.17399978637695 -39.90999984741211,-15.652000427246094 -33.54600143432617,9.913000106811523 C-27.18199920654297,35.47800064086914 -14.241000175476074,58.435001373291016 -14.241000175476074,58.435001373291016 C-14.241000175476074,58.435001373291016 50.762001037597656,51.737998962402344 50.762001037597656,51.737998962402344 C50.762001037597656,51.737998962402344 22.408000946044922,6.065999984741211 13.41100025177002,-12 C4.414000034332275,-30.06599998474121 -6.936999797821045,-58.435001373291016 -6.936999797821045,-58.435001373291016 C-6.936999797821045,-58.435001373291016 -50.76300048828125,-40.17399978637695 -50.76300048828125,-40.17399978637695z"></path><path stroke-linecap="round" stroke-linejoin="round" fill-opacity="0" stroke="rgb(0,0,0)" stroke-opacity="1" stroke-width="2" d=" M-50.76300048828125,-40.17399978637695 C-50.76300048828125,-40.17399978637695 -39.90999984741211,-15.652000427246094 -33.54600143432617,9.913000106811523 C-27.18199920654297,35.47800064086914 -14.241000175476074,58.435001373291016 -14.241000175476074,58.435001373291016 C-14.241000175476074,58.435001373291016 50.762001037597656,51.737998962402344 50.762001037597656,51.737998962402344 C50.762001037597656,51.737998962402344 22.408000946044922,6.065999984741211 13.41100025177002,-12 C4.414000034332275,-30.06599998474121 -6.936999797821045,-58.435001373291016 -6.936999797821045,-58.435001373291016 C-6.936999797821045,-58.435001373291016 -50.76300048828125,-40.17399978637695 -50.76300048828125,-40.17399978637695z"></path></g>

<g opacity="1" transform="matrix(1,0,0,1,631.7839965820312,675.166015625)"><path fill="rgb(255,255,255)" fill-opacity="1" d=" M67.50299835205078,22.222999572753906 C65.86599731445312,30.163999557495117 65.53600311279297,36.62699890136719 60.66699981689453,43.39699935913086 C68.18800354003906,49.99599838256836 78.4260025024414,65.97200012207031 25.197999954223633,80.01899719238281 C3.624000072479248,84.33499908447266 1.86899995803833,73.25599670410156 2.4100000858306885,67.23500061035156 C-12.654999732971191,64.47100067138672 -24.367000579833984,56.19200134277344 -31.85099983215332,56.04499816894531 C-44.07899856567383,55.79899978637695 -48.77399826049805,64.93399810791016 -63.60100173950195,60.61399841308594 C-78.427001953125,56.29399871826172 -77.50700378417969,32.814998626708984 -51.7239990234375,24.222000122070312 C-37.685001373291016,20.0049991607666 -25.993000030517578,28.55900001525879 -24.323999404907227,26.770999908447266 C-22.658000946044922,24.97599983215332 -32.42300033569336,-5.53000020980835 -50.4630012512207,-29.985000610351562 C-68.50199890136719,-54.439998626708984 -56.34000015258789,-76.61000061035156 -45.04100036621094,-80.37899780273438 C-33.18000030517578,-84.33499908447266 -18.54400062561035,-42.09299850463867 -16.256000518798828,-40.18000030517578 C-13.97599983215332,-38.26499938964844 -12.663999557495117,-44.5989990234375 -4.9770002365112305,-47.01300048828125 C2.7119998931884766,-49.41999816894531 6.607999801635742,-44.981998443603516 9.454000473022461,-45.417999267578125 C12.295000076293945,-45.845001220703125 13.932999610900879,-48.27000045776367 20.739999771118164,-46.8390007019043 C27.549999237060547,-45.4010009765625 29.43899917602539,-42.43299865722656 31.385000228881836,-41.922000885009766 C33.33100128173828,-41.4109992980957 34.8650016784668,-44.10100173950195 43.946998596191406,-40.95899963378906 C54.52799987792969,-37.41699981689453 72.01200103759766,-2.302999973297119 67.50299835205078,22.222999572753906z"></path><path stroke-linecap="butt" stroke-linejoin="miter" fill-opacity="0" stroke-miterlimit="10" stroke="rgb(0,0,0)" stroke-opacity="1" stroke-width="2" d=" M67.50299835205078,22.222999572753906 C65.86599731445312,30.163999557495117 65.53600311279297,36.62699890136719 60.66699981689453,43.39699935913086 C68.18800354003906,49.99599838256836 78.4260025024414,65.97200012207031 25.197999954223633,80.01899719238281 C3.624000072479248,84.33499908447266 1.86899995803833,73.25599670410156 2.4100000858306885,67.23500061035156 C-12.654999732971191,64.47100067138672 -24.367000579833984,56.19200134277344 -31.85099983215332,56.04499816894531 C-44.07899856567383,55.79899978637695 -48.77399826049805,64.93399810791016 -63.60100173950195,60.61399841308594 C-78.427001953125,56.29399871826172 -77.50700378417969,32.814998626708984 -51.7239990234375,24.222000122070312 C-37.685001373291016,20.0049991607666 -25.993000030517578,28.55900001525879 -24.323999404907227,26.770999908447266 C-22.658000946044922,24.97599983215332 -32.42300033569336,-5.53000020980835 -50.4630012512207,-29.985000610351562 C-68.50199890136719,-54.439998626708984 -56.34000015258789,-76.61000061035156 -45.04100036621094,-80.37899780273438 C-33.18000030517578,-84.33499908447266 -18.54400062561035,-42.09299850463867 -16.256000518798828,-40.18000030517578 C-13.97599983215332,-38.26499938964844 -12.663999557495117,-44.5989990234375 -4.9770002365112305,-47.01300048828125 C2.7119998931884766,-49.41999816894531 6.607999801635742,-44.981998443603516 9.454000473022461,-45.417999267578125 C12.295000076293945,-45.845001220703125 13.932999610900879,-48.27000045776367 20.739999771118164,-46.8390007019043 C27.549999237060547,-45.4010009765625 29.43899917602539,-42.43299865722656 31.385000228881836,-41.922000885009766 C33.33100128173828,-41.4109992980957 34.8650016784668,-44.10100173950195 43.946998596191406,-40.95899963378906 C54.52799987792969,-37.41699981689453 72.01200103759766,-2.302999973297119 67.50299835205078,22.222999572753906z"></path></g>

<g opacity="1" transform="matrix(1,0,0,1,628.5770263671875,672.1170043945312)"><path stroke-linecap="butt" stroke-linejoin="miter" fill-opacity="0" stroke-miterlimit="10" stroke="rgb(0,0,0)" stroke-opacity="1" stroke-width="2" d=" M-21.114999771118164,29.81800079345703 C-22.781999588012695,31.608999252319336 -34.48099899291992,23.051000595092773 -48.51499938964844,27.27199935913086 C-74.30000305175781,35.867000579833984 -75.21700286865234,59.340999603271484 -60.393001556396484,63.6609992980957 C-45.569000244140625,67.98100280761719 -40.87200164794922,58.849998474121094 -28.64299964904785,59.095001220703125 C-16.413999557495117,59.3390007019043 7.122000217437744,81.29000091552734 38.12200164794922,65.44100189208984 C69.12300109863281,49.59199905395508 67.68499755859375,39.94300079345703 70.71099853515625,25.270999908447266 C75.21600341796875,0.7429999709129333 57.737998962402344,-34.369998931884766 47.15599822998047,-37.90599822998047 C38.07600021362305,-41.05400085449219 36.53900146484375,-38.3650016784668 34.59400177001953,-38.874000549316406 C32.64799880981445,-39.382999420166016 30.7549991607666,-42.354000091552734 23.945999145507812,-43.78900146484375 C17.13599967956543,-45.222999572753906 15.5,-42.79899978637695 12.659000396728516,-42.36600112915039 C9.817999839782715,-41.93299865722656 5.918000221252441,-46.37099838256836 -1.7710000276565552,-43.96099853515625 C-9.458999633789062,-41.54999923706055 -10.763999938964844,-35.21500015258789 -13.048999786376953,-37.130001068115234 C-15.335000038146973,-39.04399871826172 -29.974000930786133,-81.29000091552734 -41.83100128173828,-77.33399963378906 C-53.13199996948242,-73.56400299072266 -65.29299926757812,-51.38800048828125 -47.25299835205078,-26.934999465942383 C-29.21299934387207,-2.4809999465942383 -19.447999954223633,28.027000427246094 -21.114999771118164,29.81800079345703z"></path></g><g opacity="1" transform="matrix(1,0,0,1,646.6489868164062,638.9979858398438)"><path stroke-linecap="round" stroke-linejoin="round" fill-opacity="0" stroke="rgb(0,0,0)" stroke-opacity="1" stroke-width="2" d=" M-9.560999870300293,-10.336000442504883 C-9.560999870300293,-10.336000442504883 -3.5989999771118164,-8.435999870300293 1.7139999866485596,-2.0759999752044678 C7.0269999504089355,4.283999919891357 9.562000274658203,10.336000442504883 9.562000274658203,10.336000442504883"></path></g><g opacity="1" transform="matrix(1,0,0,1,662.22998046875,636.6690063476562)"><path stroke-linecap="round" stroke-linejoin="round" fill-opacity="0" stroke="rgb(0,0,0)" stroke-opacity="1" stroke-width="2" d=" M-6.671000003814697,-7.505000114440918 C-6.671000003814697,-7.505000114440918 -2.6089999675750732,-6.423999786376953 0.47999998927116394,-3.0280001163482666 C3.569000005722046,0.36800000071525574 6.671000003814697,7.505000114440918 6.671000003814697,7.505000114440918"></path></g><g opacity="1" transform="matrix(1,0,0,1,624.4990234375,646.489990234375)"><path stroke-linecap="round" stroke-linejoin="round" fill-opacity="0" stroke="rgb(0,0,0)" stroke-opacity="1" stroke-width="2" d=" M-9.819000244140625,-12.822999954223633 C-9.819000244140625,-12.822999954223633 -7.5289998054504395,-6.335999965667725 -1.8450000286102295,1.753000020980835 C3.8380000591278076,9.843000411987305 9.819000244140625,12.822999954223633 9.819000244140625,12.822999954223633"></path></g>

</g><g transform="matrix(0.874213695526123,0.48554134368896484,0.48554134368896484,-0.874213695526123,108.13861083984375,431.95849609375)" opacity="1" style="display: block;"><g opacity="1" transform="matrix(1,0,0,1,699.9400024414062,789.5650024414062)"><path fill="rgb(9,147,201)" fill-opacity="1" d=" M-50.76300048828125,-40.17399978637695 C-50.76300048828125,-40.17399978637695 -39.90999984741211,-15.652000427246094 -33.54600143432617,9.913000106811523 C-27.18199920654297,35.47800064086914 -14.241000175476074,58.435001373291016 -14.241000175476074,58.435001373291016 C-14.241000175476074,58.435001373291016 50.762001037597656,51.737998962402344 50.762001037597656,51.737998962402344 C50.762001037597656,51.737998962402344 22.408000946044922,6.065999984741211 13.41100025177002,-12 C4.414000034332275,-30.06599998474121 -6.936999797821045,-58.435001373291016 -6.936999797821045,-58.435001373291016 C-6.936999797821045,-58.435001373291016 -50.76300048828125,-40.17399978637695 -50.76300048828125,-40.17399978637695z"></path><path stroke-linecap="round" stroke-linejoin="round" fill-opacity="0" stroke="rgb(0,0,0)" stroke-opacity="1" stroke-width="2" d=" M-50.76300048828125,-40.17399978637695 C-50.76300048828125,-40.17399978637695 -39.90999984741211,-15.652000427246094 -33.54600143432617,9.913000106811523 C-27.18199920654297,35.47800064086914 -14.241000175476074,58.435001373291016 -14.241000175476074,58.435001373291016 C-14.241000175476074,58.435001373291016 50.762001037597656,51.737998962402344 50.762001037597656,51.737998962402344 C50.762001037597656,51.737998962402344 22.408000946044922,6.065999984741211 13.41100025177002,-12 C4.414000034332275,-30.06599998474121 -6.936999797821045,-58.435001373291016 -6.936999797821045,-58.435001373291016 C-6.936999797821045,-58.435001373291016 -50.76300048828125,-40.17399978637695 -50.76300048828125,-40.17399978637695z"></path></g>

<g opacity="1" transform="matrix(1,0,0,1,631.7839965820312,675.166015625)"><path fill="rgb(255,255,255)" fill-opacity="1" d=" M67.50299835205078,22.222999572753906 C65.86599731445312,30.163999557495117 65.53600311279297,36.62699890136719 60.66699981689453,43.39699935913086 C68.18800354003906,49.99599838256836 78.4260025024414,65.97200012207031 25.197999954223633,80.01899719238281 C3.624000072479248,84.33499908447266 1.86899995803833,73.25599670410156 2.4100000858306885,67.23500061035156 C-12.654999732971191,64.47100067138672 -24.367000579833984,56.19200134277344 -31.85099983215332,56.04499816894531 C-44.07899856567383,55.79899978637695 -48.77399826049805,64.93399810791016 -63.60100173950195,60.61399841308594 C-78.427001953125,56.29399871826172 -77.50700378417969,32.814998626708984 -51.7239990234375,24.222000122070312 C-37.685001373291016,20.0049991607666 -25.993000030517578,28.55900001525879 -24.323999404907227,26.770999908447266 C-22.658000946044922,24.97599983215332 -32.42300033569336,-5.53000020980835 -50.4630012512207,-29.985000610351562 C-68.50199890136719,-54.439998626708984 -56.34000015258789,-76.61000061035156 -45.04100036621094,-80.37899780273438 C-33.18000030517578,-84.33499908447266 -18.54400062561035,-42.09299850463867 -16.256000518798828,-40.18000030517578 C-13.97599983215332,-38.26499938964844 -12.663999557495117,-44.5989990234375 -4.9770002365112305,-47.01300048828125 C2.7119998931884766,-49.41999816894531 6.607999801635742,-44.981998443603516 9.454000473022461,-45.417999267578125 C12.295000076293945,-45.845001220703125 13.932999610900879,-48.27000045776367 20.739999771118164,-46.8390007019043 C27.549999237060547,-45.4010009765625 29.43899917602539,-42.43299865722656 31.385000228881836,-41.922000885009766 C33.33100128173828,-41.4109992980957 34.8650016784668,-44.10100173950195 43.946998596191406,-40.95899963378906 C54.52799987792969,-37.41699981689453 72.01200103759766,-2.302999973297119 67.50299835205078,22.222999572753906z"></path><path stroke-linecap="butt" stroke-linejoin="miter" fill-opacity="0" stroke-miterlimit="10" stroke="rgb(0,0,0)" stroke-opacity="1" stroke-width="2" d=" M67.50299835205078,22.222999572753906 C65.86599731445312,30.163999557495117 65.53600311279297,36.62699890136719 60.66699981689453,43.39699935913086 C68.18800354003906,49.99599838256836 78.4260025024414,65.97200012207031 25.197999954223633,80.01899719238281 C3.624000072479248,84.33499908447266 1.86899995803833,73.25599670410156 2.4100000858306885,67.23500061035156 C-12.654999732971191,64.47100067138672 -24.367000579833984,56.19200134277344 -31.85099983215332,56.04499816894531 C-44.07899856567383,55.79899978637695 -48.77399826049805,64.93399810791016 -63.60100173950195,60.61399841308594 C-78.427001953125,56.29399871826172 -77.50700378417969,32.814998626708984 -51.7239990234375,24.222000122070312 C-37.685001373291016,20.0049991607666 -25.993000030517578,28.55900001525879 -24.323999404907227,26.770999908447266 C-22.658000946044922,24.97599983215332 -32.42300033569336,-5.53000020980835 -50.4630012512207,-29.985000610351562 C-68.50199890136719,-54.439998626708984 -56.34000015258789,-76.61000061035156 -45.04100036621094,-80.37899780273438 C-33.18000030517578,-84.33499908447266 -18.54400062561035,-42.09299850463867 -16.256000518798828,-40.18000030517578 C-13.97599983215332,-38.26499938964844 -12.663999557495117,-44.5989990234375 -4.9770002365112305,-47.01300048828125 C2.7119998931884766,-49.41999816894531 6.607999801635742,-44.981998443603516 9.454000473022461,-45.417999267578125 C12.295000076293945,-45.845001220703125 13.932999610900879,-48.27000045776367 20.739999771118164,-46.8390007019043 C27.549999237060547,-45.4010009765625 29.43899917602539,-42.43299865722656 31.385000228881836,-41.922000885009766 C33.33100128173828,-41.4109992980957 34.8650016784668,-44.10100173950195 43.946998596191406,-40.95899963378906 C54.52799987792969,-37.41699981689453 72.01200103759766,-2.302999973297119 67.50299835205078,22.222999572753906z"></path></g>

<g opacity="1" transform="matrix(1,0,0,1,628.5770263671875,672.1170043945312)"><path stroke-linecap="butt" stroke-linejoin="miter" fill-opacity="0" stroke-miterlimit="10" stroke="rgb(0,0,0)" stroke-opacity="1" stroke-width="2" d=" M-21.114999771118164,29.81800079345703 C-22.781999588012695,31.608999252319336 -34.48099899291992,23.051000595092773 -48.51499938964844,27.27199935913086 C-74.30000305175781,35.867000579833984 -75.21700286865234,59.340999603271484 -60.393001556396484,63.6609992980957 C-45.569000244140625,67.98100280761719 -40.87200164794922,58.849998474121094 -28.64299964904785,59.095001220703125 C-16.413999557495117,59.3390007019043 7.122000217437744,81.29000091552734 38.12200164794922,65.44100189208984 C69.12300109863281,49.59199905395508 67.68499755859375,39.94300079345703 70.71099853515625,25.270999908447266 C75.21600341796875,0.7429999709129333 57.737998962402344,-34.369998931884766 47.15599822998047,-37.90599822998047 C38.07600021362305,-41.05400085449219 36.53900146484375,-38.3650016784668 34.59400177001953,-38.874000549316406 C32.64799880981445,-39.382999420166016 30.7549991607666,-42.354000091552734 23.945999145507812,-43.78900146484375 C17.13599967956543,-45.222999572753906 15.5,-42.79899978637695 12.659000396728516,-42.36600112915039 C9.817999839782715,-41.93299865722656 5.918000221252441,-46.37099838256836 -1.7710000276565552,-43.96099853515625 C-9.458999633789062,-41.54999923706055 -10.763999938964844,-35.21500015258789 -13.048999786376953,-37.130001068115234 C-15.335000038146973,-39.04399871826172 -29.974000930786133,-81.29000091552734 -41.83100128173828,-77.33399963378906 C-53.13199996948242,-73.56400299072266 -65.29299926757812,-51.38800048828125 -47.25299835205078,-26.934999465942383 C-29.21299934387207,-2.4809999465942383 -19.447999954223633,28.027000427246094 -21.114999771118164,29.81800079345703z"></path></g>
<g opacity="1" transform="matrix(1,0,0,1,646.6489868164062,638.9979858398438)"><path stroke-linecap="round" stroke-linejoin="round" fill-opacity="0" stroke="rgb(0,0,0)" stroke-opacity="1" stroke-width="2" d=" M-9.560999870300293,-10.336000442504883 C-9.560999870300293,-10.336000442504883 -3.5989999771118164,-8.435999870300293 1.7139999866485596,-2.0759999752044678 C7.0269999504089355,4.283999919891357 9.562000274658203,10.336000442504883 9.562000274658203,10.336000442504883"></path></g><g opacity="1" transform="matrix(1,0,0,1,662.22998046875,636.6690063476562)"><path stroke-linecap="round" stroke-linejoin="round" fill-opacity="0" stroke="rgb(0,0,0)" stroke-opacity="1" stroke-width="2" d=" M-6.671000003814697,-7.505000114440918 C-6.671000003814697,-7.505000114440918 -2.6089999675750732,-6.423999786376953 0.47999998927116394,-3.0280001163482666 C3.569000005722046,0.36800000071525574 6.671000003814697,7.505000114440918 6.671000003814697,7.505000114440918"></path></g><g opacity="1" transform="matrix(1,0,0,1,624.4990234375,646.489990234375)"><path stroke-linecap="round" stroke-linejoin="round" fill-opacity="0" stroke="rgb(0,0,0)" stroke-opacity="1" stroke-width="2" d=" M-9.819000244140625,-12.822999954223633 C-9.819000244140625,-12.822999954223633 -7.5289998054504395,-6.335999965667725 -1.8450000286102295,1.753000020980835 C3.8380000591278076,9.843000411987305 9.819000244140625,12.822999954223633 9.819000244140625,12.822999954223633"></path>
</g>
</g>
</g>

</svg>