<svg width="100" height="100" viewBox="0 0 100 100" fill="none" xmlns="http://www.w3.org/2000/svg">
<path d="M82.5 0H17.5C7.83502 0 0 7.83502 0 17.5V82.5C0 92.165 7.83502 100 17.5 100H82.5C92.165 100 100 92.165 100 82.5V17.5C100 7.83502 92.165 0 82.5 0Z" fill="#000058"/>
<path d="M42.0784 58.4507H28.2288L24.6526 69.8946C24.6092 70.2414 24.3925 70.4148 24.0023 70.4148H17.5002C17.0667 70.4148 16.915 70.1981 17.045 69.7646L29.5942 31.4664C29.8977 30.6428 30.0711 29.4507 30.1144 27.8901C30.1144 27.63 30.2444 27.5 30.5045 27.5H39.6076C39.8677 27.5 40.0194 27.6084 40.0627 27.8251L54.1075 69.8296C54.2375 70.2197 54.1291 70.4148 53.7823 70.4148H46.4999C46.1965 70.4148 45.9797 70.2848 45.8497 70.0247L42.0784 58.4507ZM29.7893 52.2735H40.5829C40.3228 51.3632 39.781 49.586 38.9574 46.9417C38.1338 44.2975 37.3752 41.8266 36.6816 39.5291C35.988 37.2317 35.4679 35.4111 35.1211 34.0673H35.0561C34.5792 36.3214 32.8236 42.3901 29.7893 52.2735Z" fill="#9999F9"/>
<path d="M75.5875 55.9798H63.6885C63.7319 58.7541 64.5121 60.9432 66.0293 62.5471C67.5465 64.151 69.8222 64.9529 72.8566 64.9529C75.6309 64.9529 78.1017 64.4761 80.2691 63.5224C80.5292 63.349 80.6592 63.4357 80.6592 63.7825V68.5292C80.6592 68.8326 80.5292 69.0927 80.2691 69.3094C77.7983 70.4365 74.7639 71 71.166 71C65.8342 71 61.9113 69.4828 59.3971 66.4484C56.9263 63.3707 55.6908 59.5344 55.6908 54.9395C55.6908 50.1712 56.9913 46.1831 59.5921 42.9753C62.193 39.7676 65.7475 38.1637 70.2557 38.1637C74.5472 38.1637 77.7332 39.4858 79.8139 42.13C81.938 44.7743 83 47.8737 83 51.4283C83 53.2055 82.9133 54.4626 82.7399 55.1996C82.6966 55.503 82.5232 55.6764 82.2197 55.7197C81.0927 55.8931 78.882 55.9798 75.5875 55.9798ZM63.6885 50.9731H72.2714C74.1354 50.9731 75.1974 50.9297 75.4575 50.8431C75.5008 50.6697 75.5225 50.3662 75.5225 49.9327C75.5225 48.2855 75.089 46.8117 74.2221 45.5112C73.3551 44.2108 71.9463 43.5605 69.9956 43.5605C68.0883 43.5605 66.6145 44.2541 65.5742 45.6413C64.5338 47.0284 63.9053 48.8057 63.6885 50.9731Z" fill="#9999F9"/>
</svg>
