<svg width="100" height="100" viewBox="0 0 100 100" fill="none" xmlns="http://www.w3.org/2000/svg">
<path d="M17.7083 8.06015e-06H82.2917C84.6178 -0.00224053 86.9215 0.466009 89.0709 1.37796C91.2204 2.28991 93.1734 3.62765 94.8182 5.31463C96.463 7.00162 97.7673 9.00471 98.6565 11.2093C99.5456 13.4139 100.002 15.7766 100 18.1624V81.8376C100.002 84.2234 99.5456 86.5861 98.6565 88.7907C97.7673 90.9953 96.463 92.9984 94.8182 94.6854C93.1734 96.3723 91.2204 97.7101 89.0709 98.622C86.9215 99.534 84.6178 100.002 82.2917 100H17.7083C15.3822 100.002 13.0785 99.534 10.9291 98.622C8.7796 97.7101 6.82658 96.3723 5.18177 94.6854C3.53696 92.9984 2.23266 90.9953 1.34351 88.7907C0.454359 86.5861 -0.00218452 84.2234 7.85865e-06 81.8376V18.1624C-0.00218452 15.7766 0.454359 13.4139 1.34351 11.2093C2.23266 9.00471 3.53696 7.00162 5.18177 5.31463C6.82658 3.62765 8.7796 2.28991 10.9291 1.37796C13.0785 0.466009 15.3822 -0.00224053 17.7083 8.06015e-06Z" fill="#000B1D"/>
<path d="M41.4936 53.4533C41.7842 48.2679 44.3235 43.6995 48.1543 40.461C51.9111 37.2801 56.9677 35.3359 62.485 35.3359C67.9968 35.3359 73.0534 37.2801 76.813 40.461C80.6411 43.6995 83.1803 48.268 83.4737 53.4479C83.7644 58.7759 81.6228 63.7255 77.866 67.3945C74.0352 71.1266 68.5864 73.4684 62.485 73.4684C56.3836 73.4684 50.9239 71.1266 47.0958 67.3945C43.3363 63.7255 41.2001 58.7759 41.4936 53.4533Z" fill="white"/>
<path d="M51.6993 53.9221C51.8484 51.2615 53.1513 48.9174 55.117 47.2557C57.0446 45.6235 59.6392 44.626 62.4701 44.626C65.2983 44.626 67.8928 45.6235 69.8219 47.2557C71.7861 48.9174 73.089 51.2615 73.2396 53.9193C73.3887 56.6532 72.2898 59.1928 70.3622 61.0754C68.3966 62.9904 65.6008 64.1919 62.4701 64.1919C59.3395 64.1919 56.5381 62.9904 54.5738 61.0754C52.6448 59.1928 51.5487 56.6531 51.6993 53.9221Z" fill="#265787"/>
<path d="M34.547 59.3112C34.5653 60.3524 34.8973 62.3757 35.3954 63.9558C36.4423 67.3003 38.2179 70.3943 40.6887 73.1211C43.2242 75.9239 46.3464 78.1751 49.9526 79.7735C53.7432 81.4521 57.8503 82.3075 62.1164 82.3005C66.3755 82.2949 70.4827 81.4225 74.2732 79.7312C77.8794 78.1174 80.9988 75.8563 83.5301 73.0522C85.9994 70.3141 87.7723 67.2145 88.8219 63.87C89.3496 62.1801 89.6831 60.465 89.8167 58.7442C89.9476 57.0488 89.8927 55.3505 89.6521 53.6536C89.1821 50.3471 88.0382 47.2446 86.2766 44.4165C84.6655 41.8178 82.5888 39.5427 80.1194 37.6277L80.1251 37.6235L55.2051 18.4895C55.1825 18.4726 55.1643 18.4543 55.1404 18.4388C53.5054 17.1838 50.756 17.188 48.9578 18.4459C47.14 19.7178 46.9317 21.8213 48.5498 23.1481L48.5427 23.1551L58.9365 31.6071L27.2571 31.6409H27.2149C24.5964 31.6437 22.0793 33.3616 21.5812 35.5327C21.069 37.7445 22.8475 39.5792 25.5701 39.5891L25.5659 39.5989L41.623 39.568L12.9701 61.5611C12.9335 61.5878 12.8941 61.6159 12.8604 61.6427C10.1574 63.7124 9.28369 67.1539 10.9862 69.332C12.714 71.5466 16.3878 71.5509 19.1189 69.3447L34.7566 56.5464C34.7566 56.5464 34.5287 58.2742 34.547 59.3112ZM74.7305 65.0969C71.5084 68.3794 66.9974 70.241 62.1164 70.2508C57.2284 70.2592 52.7174 68.4146 49.4953 65.1377C47.9208 63.5407 46.7643 61.7032 46.0509 59.746C45.3516 57.8226 45.08 55.781 45.2601 53.7212C45.4304 51.7077 46.0298 49.7871 46.9866 48.0495C47.9265 46.3413 49.221 44.7979 50.8193 43.4922C53.9514 40.9398 57.9389 39.5581 62.1094 39.5525C66.2841 39.5469 70.2688 40.9159 73.4037 43.4598C74.9992 44.7599 76.2923 46.2977 77.2322 48.003C78.1932 49.7393 78.7884 51.6528 78.9657 53.6719C79.143 55.729 78.8714 57.7678 78.1721 59.6926C77.4573 61.6553 76.3049 63.4929 74.7305 65.0969Z" fill="#EA7600"/>
</svg>
