<svg width="100" height="100" viewBox="0 0 100 100" fill="none" xmlns="http://www.w3.org/2000/svg">
<g clip-path="url(#clip0_235_824)">
<path d="M17.7083 8.06015e-06H82.2917C84.6178 -0.00224053 86.9215 0.466009 89.0709 1.37796C91.2204 2.28991 93.1734 3.62765 94.8182 5.31463C96.463 7.00162 97.7673 9.00471 98.6565 11.2093C99.5456 13.4139 100.002 15.7766 100 18.1624V81.8376C100.002 84.2234 99.5456 86.5861 98.6565 88.7907C97.7673 90.9953 96.463 92.9984 94.8182 94.6854C93.1734 96.3723 91.2204 97.7101 89.0709 98.622C86.9215 99.534 84.6178 100.002 82.2917 100H17.7083C15.3822 100.002 13.0785 99.534 10.9291 98.622C8.7796 97.7101 6.82658 96.3723 5.18177 94.6854C3.53696 92.9984 2.23266 90.9953 1.34351 88.7907C0.454359 86.5861 -0.00218452 84.2234 7.85865e-06 81.8376V18.1624C-0.00218452 15.7766 0.454359 13.4139 1.34351 11.2093C2.23266 9.00471 3.53696 7.00162 5.18177 5.31463C6.82658 3.62765 8.7796 2.28991 10.9291 1.37796C13.0785 0.466009 15.3822 -0.00224053 17.7083 8.06015e-06Z" fill="#F0F0F0"/>
<path d="M50.0063 88.7459L27.5127 82.5014L22.5 26.2793H77.58L72.5621 82.4928L50.0063 88.7459Z" fill="#264DE4"/>
<path d="M68.2653 78.9131L72.5532 30.876H50.0391V83.966L68.2653 78.9131Z" fill="#2965F1"/>
<path d="M33.9919 51.7279L34.6098 58.6233H50.0405V51.7279H33.9919ZM32.75 37.7715L33.3768 44.6669H50.0405V37.7715H32.75ZM50.0405 69.6361L50.0102 69.6441L42.3309 67.5705L41.8399 62.0712H34.9179L35.8839 72.898L50.0087 76.8189L50.0405 76.8103V69.6361Z" fill="#EBEBEB"/>
<path d="M35.4629 11H43.8142V14.4925H38.9554V17.985H43.8146V21.4773H35.4629V11ZM45.4846 11H53.8361V14.0369H48.9771V14.6443H53.8361V21.6293H45.4849V18.4402H50.3438V17.8328H45.4844V11H45.4846ZM55.5066 11H63.8581V14.0369H58.9991V14.6443H63.8581V21.6293H55.5066V18.4402H60.3656V17.8328H55.5068V11H55.5066Z" fill="black"/>
<path d="M66.0441 51.7279L67.2888 37.7715H50.0158V44.6669H59.7321L59.1047 51.7279H50.0158V58.6233H58.5068L57.7062 67.5662L50.0156 69.6419V76.8157L64.1517 72.898L64.2553 71.733L65.8759 53.5795L66.0441 51.7279Z" fill="white"/>
</g>
<defs>
<clipPath id="clip0_235_824">
<rect width="100" height="100" fill="white"/>
</clipPath>
</defs>
</svg>
