<svg width="100" height="100" viewBox="0 0 100 100" fill="none" xmlns="http://www.w3.org/2000/svg">
<path d="M82.5 0H17.5C7.83502 0 0 7.83502 0 17.5V82.5C0 92.165 7.83502 100 17.5 100H82.5C92.165 100 100 92.165 100 82.5V17.5C100 7.83502 92.165 0 82.5 0Z" fill="#071D34"/>
<path d="M50.4307 71.5H26.5848C26.1949 71.5 26 71.2828 26 70.8485V29.0212C26 28.6737 26.1733 28.5 26.5198 28.5H33.4722C33.7321 28.5 33.862 28.652 33.862 28.9561V65.3758H51.6652C52.0551 65.3758 52.2067 65.5495 52.1201 65.897L51.0805 70.9788C50.9938 71.3263 50.7773 71.5 50.4307 71.5Z" fill="#55A5F9"/>
<path d="M55.6318 39.7712H61.7395C62.086 39.7712 62.3242 39.945 62.4542 40.2924C62.8007 41.1611 63.0173 42.4207 63.1039 44.0712C65.6163 40.8136 68.9301 39.1848 73.0452 39.1848C73.3484 39.1848 73.5 39.3369 73.5 39.6409V46.2212C73.5 46.5687 73.3267 46.7207 72.9802 46.6773C69.2116 46.4601 66.2444 47.4374 64.0786 49.6091C63.6887 50 63.4938 50.5212 63.4938 51.1727V71.0439C63.4938 71.348 63.3205 71.5 62.974 71.5H56.1516C55.7617 71.5 55.5668 71.3263 55.5668 70.9788V48.9576C55.5668 45.4394 55.4585 42.5293 55.2419 40.2273C55.1986 39.9232 55.3286 39.7712 55.6318 39.7712Z" fill="#55A5F9"/>
</svg>
