<svg width="1045" height="690" viewBox="0 0 1045 690" fill="none" xmlns="http://www.w3.org/2000/svg">
<g clip-path="url(#clip0_344_226)">
<path d="M1028.12 0H16.8809V623.973H1028.12V0Z" fill="#575756"/>
<path d="M1000.06 46.373H841.316C836.672 46.373 832.906 50.1404 832.906 54.7877V593.017C832.906 597.664 836.672 601.432 841.316 601.432H1000.06C1004.71 601.432 1008.47 597.664 1008.47 593.017V54.7877C1008.47 50.1404 1004.71 46.373 1000.06 46.373Z" fill="white"/>
<path d="M1008.47 323.933H832.906V571.949H1008.47V323.933Z" fill="#EDEDED"/>
<path d="M794.969 39.3711H63.2298C56.2457 39.3711 50.584 45.0359 50.584 52.0238V588.841C50.584 595.829 56.2457 601.493 63.2298 601.493H794.969C801.953 601.493 807.615 595.829 807.615 588.841V52.0238C807.615 45.0359 801.953 39.3711 794.969 39.3711Z" fill="white"/>
<path d="M1045 656.28H0L16.8816 628.149H1028.12L1045 656.28Z" fill="#575756"/>
<path d="M965.625 690H50.5828L42.1113 660.519H974.036L965.625 690Z" fill="#575756"/>
<path d="M1000.43 300.716H838.186V316.194H1000.43V300.716Z" fill="#575756"/>
<path d="M1000.43 278.235H838.186V293.713H1000.43V278.235Z" fill="#575756"/>
<path d="M1000.43 255.756H838.186V271.234H1000.43V255.756Z" fill="#575756"/>
<path d="M1000.43 233.275H838.186V248.753H1000.43V233.275Z" fill="#575756"/>
<path d="M1000.43 210.796H838.186V226.274H1000.43V210.796Z" fill="#575756"/>
<path d="M1000.43 188.315H838.186V203.793H1000.43V188.315Z" fill="#575756"/>
<path d="M1000.43 165.836H838.186V181.314H1000.43V165.836Z" fill="#575756"/>
<path d="M1000.43 143.355H838.186V158.833H1000.43V143.355Z" fill="#575756"/>
<path d="M1000.43 120.876H838.186V136.354H1000.43V120.876Z" fill="#575756"/>
<path d="M1000.43 98.3955H838.186V113.874H1000.43V98.3955Z" fill="#575756"/>
<path d="M1000.43 75.916H838.186V91.394H1000.43V75.916Z" fill="#575756"/>
<path d="M1000.43 53.4355H838.186V68.9136H1000.43V53.4355Z" fill="#575756"/>
<path d="M966.854 362.75C961.579 353.608 953.712 346.236 944.249 341.566C934.786 336.897 924.152 335.14 913.691 336.518C903.23 337.896 893.413 342.347 885.48 349.308C877.547 356.269 871.856 365.427 869.126 375.624C866.395 385.821 866.749 396.6 870.141 406.596C873.533 416.592 879.812 425.358 888.183 431.784C896.554 438.21 906.642 442.007 917.171 442.697C927.699 443.386 938.196 440.936 947.333 435.657C953.405 432.158 958.727 427.495 962.996 421.935C967.264 416.375 970.394 410.027 972.208 403.255C974.021 396.483 974.481 389.419 973.563 382.469C972.644 375.519 970.364 368.818 966.854 362.75Z" fill="#575756"/>
<path d="M941.009 424.724C934.036 428.746 926.028 430.609 917.998 430.078C909.967 429.547 902.274 426.645 895.891 421.74C889.508 416.835 884.722 410.147 882.138 402.521C879.553 394.895 879.287 386.673 881.372 378.895C883.457 371.118 887.8 364.133 893.851 358.825C899.903 353.516 907.392 350.122 915.371 349.071C923.351 348.02 931.462 349.36 938.681 352.921C945.899 356.482 951.901 362.104 955.926 369.077C961.311 378.439 962.765 389.555 959.968 399.987C957.172 410.42 950.353 419.316 941.009 424.724Z" fill="white"/>
<path d="M952.598 358.182L877.736 401.409L888.783 420.56L963.644 377.333L952.598 358.182Z" fill="#575756"/>
<path d="M966.853 481.292C961.57 472.158 953.7 464.795 944.236 460.135C934.773 455.475 924.141 453.726 913.684 455.11C903.228 456.494 893.416 460.948 885.489 467.91C877.562 474.872 871.876 484.028 869.148 494.223C866.421 504.417 866.775 515.192 870.166 525.185C873.558 535.178 879.833 543.94 888.201 550.366C896.568 556.791 906.651 560.59 917.176 561.283C927.701 561.976 938.195 559.532 947.332 554.26C953.406 550.755 958.729 546.086 962.999 540.521C967.268 534.955 970.398 528.602 972.211 521.825C974.024 515.048 974.484 507.98 973.565 501.025C972.645 494.07 970.365 487.364 966.853 481.292Z" fill="#575756"/>
<path d="M941.01 543.328C934.029 547.361 926.008 549.233 917.964 548.706C909.919 548.179 902.211 545.277 895.815 540.367C889.418 535.457 884.621 528.759 882.029 521.121C879.437 513.483 879.167 505.247 881.254 497.456C883.34 489.664 887.689 482.666 893.75 477.348C899.811 472.029 907.313 468.628 915.306 467.576C923.299 466.523 931.425 467.865 938.655 471.433C945.886 475 951.897 480.633 955.927 487.619C961.332 496.986 962.797 508.117 959.999 518.564C957.202 529.011 950.371 537.919 941.01 543.328Z" fill="white"/>
<path d="M952.611 476.875L877.75 520.103L888.796 539.254L963.658 496.026L952.611 476.875Z" fill="#575756"/>
</g>
<defs>
<clipPath id="clip0_344_226">
<rect width="1045" height="690" fill="white"/>
</clipPath>
</defs>
</svg>
