<svg width="100" height="100" viewBox="0 0 100 100" fill="none" xmlns="http://www.w3.org/2000/svg">
<g clip-path="url(#clip0_235_840)">
<path d="M17.7083 8.06015e-06H82.2917C84.6178 -0.00224053 86.9215 0.466009 89.0709 1.37796C91.2204 2.28991 93.1734 3.62765 94.8182 5.31463C96.4631 7.00162 97.7674 9.00471 98.6565 11.2093C99.5457 13.4139 100.002 15.7766 100 18.1624V81.8376C100.002 84.2234 99.5457 86.5861 98.6565 88.7907C97.7674 90.9953 96.4631 92.9984 94.8182 94.6854C93.1734 96.3723 91.2204 97.7101 89.0709 98.622C86.9215 99.534 84.6178 100.002 82.2917 100H17.7083C15.3822 100.002 13.0785 99.534 10.9291 98.622C8.7796 97.7101 6.82658 96.3723 5.18177 94.6854C3.53696 92.9984 2.23266 90.9953 1.34351 88.7907C0.454359 86.5861 -0.00218452 84.2234 7.85865e-06 81.8376V18.1624C-0.00218452 15.7766 0.454359 13.4139 1.34351 11.2093C2.23266 9.00471 3.53696 7.00162 5.18177 5.31463C6.82658 3.62765 8.7796 2.28991 10.9291 1.37796C13.0785 0.466009 15.3822 -0.00224053 17.7083 8.06015e-06Z" fill="#000B1D"/>
<path d="M40.4167 80.5003C46.1696 80.5003 50.8333 75.8366 50.8333 70.0837V59.667H40.4167C34.6637 59.667 30 64.3307 30 70.0837C30 75.8366 34.6637 80.5003 40.4167 80.5003Z" fill="#0ACF83"/>
<path d="M30 49.2497C30 43.4967 34.6637 38.833 40.4167 38.833H50.8333V59.6663H40.4167C34.6637 59.6663 30 55.0026 30 49.2497Z" fill="#A259FF"/>
<path d="M30 28.4167C30 22.6637 34.6637 18 40.4167 18H50.8333V38.8333H40.4167C34.6637 38.8333 30 34.1696 30 28.4167Z" fill="#F24E1E"/>
<path d="M50.834 18H61.2507C67.0036 18 71.6673 22.6637 71.6673 28.4167C71.6673 34.1696 67.0036 38.8333 61.2507 38.8333H50.834V18Z" fill="#FF7262"/>
<path d="M71.6673 49.2497C71.6673 55.0026 67.0036 59.6663 61.2507 59.6663C55.4977 59.6663 50.834 55.0026 50.834 49.2497C50.834 43.4967 55.4977 38.833 61.2507 38.833C67.0036 38.833 71.6673 43.4967 71.6673 49.2497Z" fill="#1ABCFE"/>
</g>
<defs>
<clipPath id="clip0_235_840">
<rect width="100" height="100" fill="white"/>
</clipPath>
</defs>
</svg>
