<svg width="119" height="126" viewBox="0 0 119 126" fill="none" xmlns="http://www.w3.org/2000/svg">
<mask id="path-1-inside-1_336_225" fill="white">
<path d="M60.92 -8.58307e-06C72.56 -8.58307e-06 82.7 1.91999 91.34 5.75999C99.98 9.59999 106.64 15.12 111.32 22.32C116 29.52 118.34 37.92 118.34 47.52C118.34 57.12 116 65.52 111.32 72.72C106.64 79.92 99.98 85.44 91.34 89.28C82.7 93.12 72.56 95.04 60.92 95.04H42.74V126H0.260001V-8.58307e-06H60.92ZM58.22 62.28C63.98 62.28 68.3 61.02 71.18 58.5C74.06 55.86 75.5 52.2 75.5 47.52C75.5 42.84 74.06 39.24 71.18 36.72C68.3 34.08 63.98 32.76 58.22 32.76H42.74V62.28H58.22Z"/>
</mask>
<path d="M60.92 -8.58307e-06C72.56 -8.58307e-06 82.7 1.91999 91.34 5.75999C99.98 9.59999 106.64 15.12 111.32 22.32C116 29.52 118.34 37.92 118.34 47.52C118.34 57.12 116 65.52 111.32 72.72C106.64 79.92 99.98 85.44 91.34 89.28C82.7 93.12 72.56 95.04 60.92 95.04H42.74V126H0.260001V-8.58307e-06H60.92ZM58.22 62.28C63.98 62.28 68.3 61.02 71.18 58.5C74.06 55.86 75.5 52.2 75.5 47.52C75.5 42.84 74.06 39.24 71.18 36.72C68.3 34.08 63.98 32.76 58.22 32.76H42.74V62.28H58.22Z" fill="#F8F8F8"/>
<path d="M91.34 5.75999L90.5277 7.58762L90.5277 7.58762L91.34 5.75999ZM111.32 22.32L109.643 23.41L109.643 23.41L111.32 22.32ZM111.32 72.72L109.643 71.63L109.643 71.63L111.32 72.72ZM91.34 89.28L90.5277 87.4524L90.5277 87.4524L91.34 89.28ZM42.74 95.04V93.04H40.74V95.04H42.74ZM42.74 126V128H44.74V126H42.74ZM0.260001 126H-1.74V128H0.260001V126ZM0.260001 -8.58307e-06V-2.00001H-1.74V-8.58307e-06H0.260001ZM71.18 58.5L72.497 60.0051L72.5144 59.9899L72.5315 59.9743L71.18 58.5ZM71.18 36.72L69.8286 38.1943L69.8456 38.2099L69.863 38.2251L71.18 36.72ZM42.74 32.76V30.76H40.74V32.76H42.74ZM42.74 62.28H40.74V64.28H42.74V62.28ZM60.92 1.99999C72.3432 1.99999 82.1954 3.88434 90.5277 7.58762L92.1523 3.93237C83.2047 -0.0443554 72.7768 -2.00001 60.92 -2.00001V1.99999ZM90.5277 7.58762C98.8513 11.287 105.195 16.5667 109.643 23.41L112.997 21.23C108.085 13.6733 101.109 7.91299 92.1523 3.93237L90.5277 7.58762ZM109.643 23.41C114.088 30.2481 116.34 38.2597 116.34 47.52H120.34C120.34 37.5802 117.912 28.7919 112.997 21.23L109.643 23.41ZM116.34 47.52C116.34 56.7802 114.088 64.7919 109.643 71.63L112.997 73.81C117.912 66.2481 120.34 57.4598 120.34 47.52H116.34ZM109.643 71.63C105.195 78.4733 98.8513 83.753 90.5277 87.4524L92.1523 91.1076C101.109 87.127 108.085 81.3667 112.997 73.81L109.643 71.63ZM90.5277 87.4524C82.1954 91.1557 72.3432 93.04 60.92 93.04V97.04C72.7768 97.04 83.2047 95.0843 92.1523 91.1076L90.5277 87.4524ZM60.92 93.04H42.74V97.04H60.92V93.04ZM40.74 95.04V126H44.74V95.04H40.74ZM42.74 124H0.260001V128H42.74V124ZM2.26 126V-8.58307e-06H-1.74V126H2.26ZM0.260001 1.99999H60.92V-2.00001H0.260001V1.99999ZM58.22 64.28C64.2276 64.28 69.1068 62.9716 72.497 60.0051L69.863 56.9948C67.4932 59.0684 63.7324 60.28 58.22 60.28V64.28ZM72.5315 59.9743C75.9059 56.8811 77.5 52.6401 77.5 47.52H73.5C73.5 51.7599 72.2141 54.8389 69.8286 57.0257L72.5315 59.9743ZM77.5 47.52C77.5 42.4031 75.9062 38.1979 72.497 35.2148L69.863 38.2251C72.2138 40.2821 73.5 43.2769 73.5 47.52H77.5ZM72.5315 35.2457C69.1408 32.1376 64.2473 30.76 58.22 30.76V34.76C63.7127 34.76 67.4592 36.0224 69.8286 38.1943L72.5315 35.2457ZM58.22 30.76H42.74V34.76H58.22V30.76ZM40.74 32.76V62.28H44.74V32.76H40.74ZM42.74 64.28H58.22V60.28H42.74V64.28Z" fill="#333333" mask="url(#path-1-inside-1_336_225)"/>
</svg>
