<svg xmlns="http://www.w3.org/2000/svg" xmlns:xlink="http://www.w3.org/1999/xlink" viewBox="0 0 369.23 274.76"><defs><style>.cls-1{fill:none;}.cls-2{fill:#272525;}.cls-3{fill:url(#_10_dpi_40_);}.cls-4{fill:#fff;}</style><pattern id="_10_dpi_40_" data-name="10 dpi 40%" width="28.8" height="28.8" patternTransform="translate(1108.7 188.81) scale(0.97)" patternUnits="userSpaceOnUse" viewBox="0 0 28.8 28.8"><rect class="cls-1" width="28.8" height="28.8"/><path class="cls-2" d="M28.8,31.68a2.88,2.88,0,1,0-2.88-2.88A2.88,2.88,0,0,0,28.8,31.68Z"/><path class="cls-2" d="M14.4,31.68a2.88,2.88,0,1,0-2.88-2.88A2.88,2.88,0,0,0,14.4,31.68Z"/><path class="cls-2" d="M28.8,17.28a2.88,2.88,0,1,0-2.88-2.88A2.88,2.88,0,0,0,28.8,17.28Z"/><path class="cls-2" d="M14.4,17.28a2.88,2.88,0,1,0-2.88-2.88A2.88,2.88,0,0,0,14.4,17.28Z"/><path class="cls-2" d="M7.2,24.48A2.88,2.88,0,1,0,4.32,21.6,2.88,2.88,0,0,0,7.2,24.48Z"/><path class="cls-2" d="M21.6,24.48a2.88,2.88,0,1,0-2.88-2.88A2.88,2.88,0,0,0,21.6,24.48Z"/><path class="cls-2" d="M7.2,10.08A2.88,2.88,0,1,0,4.32,7.2,2.88,2.88,0,0,0,7.2,10.08Z"/><path class="cls-2" d="M21.6,10.08A2.88,2.88,0,1,0,18.72,7.2,2.88,2.88,0,0,0,21.6,10.08Z"/><path class="cls-2" d="M0,31.68A2.88,2.88,0,0,0,2.88,28.8,2.88,2.88,0,0,0,0,25.92a2.88,2.88,0,0,0,0,5.76Z"/><path class="cls-2" d="M0,17.28A2.88,2.88,0,0,0,2.88,14.4,2.88,2.88,0,0,0,0,11.52a2.88,2.88,0,0,0,0,5.76Z"/><path class="cls-2" d="M28.8,2.88A2.88,2.88,0,0,0,31.68,0a2.88,2.88,0,0,0-5.76,0A2.88,2.88,0,0,0,28.8,2.88Z"/><path class="cls-2" d="M14.4,2.88A2.88,2.88,0,0,0,17.28,0a2.88,2.88,0,0,0-5.76,0A2.88,2.88,0,0,0,14.4,2.88Z"/><path class="cls-2" d="M0,2.88A2.88,2.88,0,0,0,2.88,0,2.88,2.88,0,0,0,0-2.88,2.88,2.88,0,0,0-2.88,0,2.88,2.88,0,0,0,0,2.88Z"/></pattern></defs><g id="Layer_2" data-name="Layer 2"><g id="Graphic_Element" data-name="Graphic Element"><path class="cls-3" d="M242.77,218.48c54.45-6.8,79.39-43.91,80.1-74,1.19-50.39-48.45-81.89-91.24-94.74-43.16-13-90.46-13.3-134-1.8C60,57.91,6.18,80.23.45,124.69c-2.69,20.87,7.08,42,21.35,56.74,38.39,39.68,105.18,52.75,158,46.69,1.38,16.72-5.82,36.65-19.3,46.64C193.68,271.27,228,248.43,242.77,218.48Z"/><path class="cls-2" d="M269.48,180c54-9.76,76.87-48.17,75.95-78.24-1.56-50.37-52.84-79.13-96.27-89.62-43.8-10.59-91-8.36-133.87,5.5C78.2,29.62,25.7,54.83,22.4,99.53c-1.55,21,9.36,41.54,24.41,55.49,40.5,37.53,107.9,46.94,160.29,38,2.29,16.62-3.81,36.9-16.72,47.62C223.33,235.36,256.39,210.69,269.48,180Z"/><path class="cls-4" d="M278.12,183.14c54.44-6.8,79.38-43.92,80.09-74,1.2-50.39-48.45-81.9-91.24-94.74-43.16-13-90.46-13.3-134-1.8-37.69,10-91.48,32.28-97.21,76.74-2.69,20.87,7.08,42,21.35,56.73,38.4,39.69,105.18,52.75,158,46.7,1.38,16.72-5.82,36.65-19.29,46.64C229,235.93,263.37,213.09,278.12,183.14Z"/><path class="cls-2" d="M39.34,127.35c6.19,12.46,15.7,22.81,26.47,31.48,20.59,16.56,45.71,26.88,71.32,32.72a233.36,233.36,0,0,0,74.43,4.76c.24,15.3-5.91,31.72-18.29,41-2.55,1.91-.42,5.58,2.42,5.28a103.32,103.32,0,0,0,22.91-5.17c25.75-9,49.08-27.17,61.94-51.46a126.41,126.41,0,0,0,17.76-3.8c21.83-6.45,42-19.9,53.62-39.78a72.85,72.85,0,0,0,9.36-26.12,71.16,71.16,0,0,0-3.09-32.57c-7.64-22.89-25.84-40.48-46-52.86C289.34,16.77,263.38,8.39,236.93,4.21A256.18,256.18,0,0,0,138.44,8C116,13.32,93.49,21.23,73.8,33.38c-19.11,11.8-36.48,28.87-41,51.69C30,99.57,32.81,114.22,39.34,127.35Zm5.47-55.64c4.45-9.16,11.45-17,19.38-23.62a134,134,0,0,1,28-17.47c5.18-2.49,9.92-4.51,15-6.44s10.07-3.65,15.18-5.24A252.25,252.25,0,0,1,161.24,10a246.06,246.06,0,0,1,94.4,4.67C278.36,20.41,301,30,319.77,44.58c17.6,13.67,31.93,32.65,34.36,55.36a62.11,62.11,0,0,1-2.75,26.88,66.52,66.52,0,0,1-5.25,11.85A75.51,75.51,0,0,1,338,150.29c-.52.61-.59.7-1,1.12s-.75.83-1.13,1.23c-.86.92-1.74,1.81-2.64,2.68-1.86,1.8-3.79,3.5-5.81,5.11a80.93,80.93,0,0,1-13.31,8.64A105.42,105.42,0,0,1,278.25,180h-.06a4,4,0,0,0-1.87.59,3.49,3.49,0,0,0-1.76,2,87.68,87.68,0,0,1-12,17.86,106.48,106.48,0,0,1-56.94,34.28c9.67-11.38,14.34-27.53,13.2-42.06a3.19,3.19,0,0,0-3.57-3q-8.72,1-17.5,1.28a222.53,222.53,0,0,1-74.77-10c-23.74-7.57-46.63-19.68-63.87-38a74.25,74.25,0,0,1-19.06-36.29A55.57,55.57,0,0,1,44.81,71.71Z"/><path class="cls-2" d="M80.17,20.48A73.07,73.07,0,0,0,69,25a85.42,85.42,0,0,0-10.88,6.5,81.94,81.94,0,0,0-9.34,7.72A74.87,74.87,0,0,0,33.31,59.92c-1.61,3.2-8.69,1.69-6.73-2.22C34.48,42,48,29.21,63.48,21.13a88.68,88.68,0,0,1,14.17-5.91c1.6-.51,4-.17,4.78,1.52s-.74,3.26-2.26,3.74Z"/><path class="cls-2" d="M363.3,57.34a106.49,106.49,0,0,0-8.88-12.5,104.85,104.85,0,0,0-10.5-11,99.39,99.39,0,0,0-11.74-9.25c-1.07-.73-2.16-1.44-3.25-2.14l-.66-.41c-1.08-.68.62.36-.48-.29-.56-.33-1.11-.67-1.67-1-2.24-1.31-4.53-2.53-6.86-3.68-1.52-.75-2.26-1.09-3.76-1.75-1.3-.57-2.62-1.12-3.95-1.64-2.64-1-5.4-2-8.06-2.8a7.68,7.68,0,0,1-4.36-3c-.7-1.13-.24-2.24,1.25-1.79a122.11,122.11,0,0,1,57.3,37.11,115.87,115.87,0,0,1,11.22,15.4c.75,1.21.17,2.09-1.25,1.8a7.33,7.33,0,0,1-4.35-3Z"/><path class="cls-2" d="M347.11,20.06A77.69,77.69,0,0,0,313.62,3.93c-.68-.14,1.75-1.75,1.94-1.87A22.91,22.91,0,0,1,318.07.63c.4-.19,1.18-.71,1.63-.62a78.64,78.64,0,0,1,33.87,16.22c.3.25-2.74,2.2-3,2.34-.49.3-2.88,2-3.48,1.49Z"/></g></g></svg>