<svg width="591" height="467" viewBox="0 0 591 467" fill="none" xmlns="http://www.w3.org/2000/svg">
<rect width="591" height="467" rx="20" fill="#333333"/>
<path d="M21 272C21 260.954 29.9543 252 41 252H91C102.046 252 111 260.954 111 272V277C111 288.046 102.046 297 91 297H21V272Z" fill="#565656"/>
<rect x="21" y="277" width="549" height="170" rx="20" fill="#565656"/>
<rect x="105" y="394" width="448" height="20" rx="5" fill="#66ED7A"/>
<rect x="105" y="369" width="148" height="20" rx="5" fill="#66A0ED"/>
<rect x="277" y="369" width="121" height="20" rx="5" fill="#66A0ED"/>
<rect x="442" y="369" width="111" height="20" rx="5" fill="#66A0ED"/>
<rect x="105" y="342" width="121" height="20" rx="5" fill="#FFD3A7"/>
<rect x="235" y="342" width="85" height="20" rx="5" fill="#FFD3A7"/>
<rect x="387" y="342" width="166" height="20" rx="5" fill="#FFD3A7"/>
<rect x="39" y="347" width="10" height="10" fill="#D9D9D9"/>
<rect x="58" y="346" width="12" height="12" fill="#D9D9D9" stroke="#4FBBFF" stroke-width="2"/>
<rect x="79" y="347" width="10" height="10" fill="#D9D9D9"/>
<rect x="39" y="374" width="10" height="10" fill="#D9D9D9"/>
<rect x="58" y="373" width="12" height="12" fill="#D9D9D9" stroke="#4FBBFF" stroke-width="2"/>
<rect x="79" y="374" width="10" height="10" fill="#D9D9D9"/>
<rect x="39" y="399" width="10" height="10" fill="#D9D9D9"/>
<rect x="58" y="398" width="12" height="12" fill="#D9D9D9" stroke="#4FBBFF" stroke-width="2"/>
<rect x="79" y="399" width="10" height="10" fill="#D9D9D9"/>
<rect x="39" y="302" width="99" height="15" rx="7.5" fill="#333333"/>
<line x1="39" y1="329.5" x2="553" y2="329.5" stroke="#D9D9D9"/>
<rect x="21" y="22" width="549" height="222" rx="20" fill="#F8F8F8"/>
<rect x="75" y="82" width="106" height="106" fill="#A236B8" stroke="#E167FF" stroke-width="6"/>
<path d="M103.887 153H95.9766L108.232 117.648H117.656L129.863 153H122.002L119.365 144.846H106.572L103.887 153ZM108.428 139.133H117.51L113.066 125.607H112.822L108.428 139.133ZM133.867 153V117.648H157.598V123.703H141.191V132.297H156.377V138.352H141.191V146.945H157.646V153H133.867Z" fill="#E167FF"/>
<ellipse cx="130" cy="211" rx="49" ry="4" fill="#D9D9D9"/>
<g clip-path="url(#clip0_305_266)">
<path d="M360.18 428.34L358.19 420.94L360.65 418.48L360.77 418.44L355.06 397.15L352.03 397.96L351.22 394.93L348.19 395.74L347.38 392.71L341.32 394.34L340.51 391.31L331.42 393.74L330.61 390.71L324.55 392.34L321.3 380.22L318.27 381.03L317.46 378L311.31 379.65L309.1 383.49V383.51L304.62 387.96L310.3 409.14L303.47 410.97L299 415.45L299.83 418.56L301.46 424.62L304.49 423.81L305.3 426.84L308.33 426.03L309.95 432.09L312.98 431.28L314.61 437.33L317.64 436.52L319.26 442.58L322.29 441.77L323.91 447.83L324.73 450.86L351.99 443.55L355.11 442.72L359.58 438.24L357.6 430.84L360.06 428.38L360.18 428.34Z" fill="black"/>
<path d="M323.55 439.58L320.53 440.39L318.9 434.33L315.87 435.14L314.25 429.08L311.22 429.9L309.6 423.84L306.56 424.65L305.75 421.62L302.72 422.43L301 415.98L304.4 412.58L312.49 410.41L306.62 388.5L311.11 384.05L316.2 380.19L317.01 383.22L320.04 382.41L323.28 394.53L329.34 392.9L330.15 395.93L339.24 393.5L340.06 396.53L346.12 394.91L346.93 397.93L349.96 397.12L350.77 400.15L353.8 399.34L358.76 417.84L356.2 420.4L358.16 427.74L355.6 430.3L357.59 437.71L354.18 441.11L325.99 448.67L323.55 439.58Z" fill="white"/>
<path d="M351.999 398L351.189 395L348.189 395.81L347.379 392.81L341.319 394.43L340.509 391.43L331.389 393.8L330.579 390.8L324.519 392.42L321.269 380.27L318.269 381.08L317.459 378.08L311.369 379.68L312.179 382.68L309.179 383.49L316.489 410.76L313.489 411.57L312.679 408.57L303.529 411L304.339 414L304.749 415.52L305.999 420.09L308.999 419.28L309.819 422.28L312.819 421.47L314.449 427.53L317.449 426.72L319.069 432.78L322.069 431.96L323.689 438.02L326.689 437.21L328.319 443.27L329.129 446.27L356.499 439L359.499 438.18L357.059 429.09L360.059 428.28L357.629 419.19L360.629 418.38L354.999 397.2L351.999 398Z" fill="white"/>
<path d="M312.189 382.7L309.156 383.513L318.898 419.87L321.931 419.057L312.189 382.7Z" fill="black"/>
<path d="M317.502 378.031L311.42 379.661L312.236 382.707L318.318 381.077L317.502 378.031Z" fill="black"/>
<path d="M321.273 380.271L318.24 381.084L325.547 408.352L328.58 407.539L321.273 380.271Z" fill="black"/>
<path d="M330.58 390.768L324.523 392.392L325.337 395.424L331.393 393.801L330.58 390.768Z" fill="black"/>
<path d="M335.244 396.014L332.211 396.825L334.643 405.915L337.677 405.104L335.244 396.014Z" fill="black"/>
<path d="M340.478 391.364L331.389 393.8L332.201 396.833L341.291 394.397L340.478 391.364Z" fill="black"/>
<path d="M345.35 396.638L342.305 397.454L344.749 406.572L347.794 405.756L345.35 396.638Z" fill="black"/>
<path d="M347.345 392.765L341.289 394.388L342.102 397.421L348.158 395.798L347.345 392.765Z" fill="black"/>
<path d="M351.195 394.983L348.162 395.796L348.975 398.829L352.008 398.016L351.195 394.983Z" fill="black"/>
<path d="M355.031 397.212L351.998 398.024L357.682 419.236L360.715 418.423L355.031 397.212Z" fill="black"/>
<path d="M357.685 419.226L354.652 420.039L357.089 429.128L360.122 428.315L357.685 419.226Z" fill="black"/>
<path d="M357.099 429.121L354.066 429.935L356.503 439.024L359.536 438.21L357.099 429.121Z" fill="black"/>
<path d="M355.989 436.184L328.605 443.523L329.422 446.569L356.805 439.229L355.989 436.184Z" fill="black"/>
<path d="M316.457 410.792L313.424 411.604L314.235 414.637L317.269 413.825L316.457 410.792Z" fill="black"/>
<path d="M312.615 408.573L303.525 411.007L304.338 414.04L313.427 411.606L312.615 408.573Z" fill="black"/>
<path d="M307.375 413.215L304.342 414.028L305.966 420.084L308.999 419.271L307.375 413.215Z" fill="black"/>
<path d="M312.031 418.463L308.998 419.276L309.811 422.309L312.844 421.496L312.031 418.463Z" fill="black"/>
<path d="M315.863 420.696L312.83 421.509L314.453 427.565L317.486 426.752L315.863 420.696Z" fill="black"/>
<path d="M320.519 425.931L317.486 426.744L319.109 432.8L322.142 431.988L320.519 425.931Z" fill="black"/>
<path d="M325.172 431.186L322.139 431.998L323.76 438.055L326.794 437.243L325.172 431.186Z" fill="black"/>
<path d="M330.04 436.619L326.994 437.436L328.624 443.517L331.67 442.701L330.04 436.619Z" fill="black"/>
</g>
<defs>
<clipPath id="clip0_305_266">
<rect width="61.77" height="72.86" fill="white" transform="translate(299 378)"/>
</clipPath>
</defs>
</svg>
